G04 #@! TF.FileFunction,Legend,Bot*
%FSLAX46Y46*%
G04 Gerber Fmt 4.6, Leading zero omitted, Abs format (unit mm)*
G04 Created by KiCad (PCBNEW 4.0.2-stable) date 4-8-2016 15:28:01*
%MOMM*%
G01*
G04 APERTURE LIST*
%ADD10C,0.100000*%
%ADD11C,0.150000*%
%ADD12C,0.300000*%
G04 APERTURE END LIST*
D10*
D11*
X106677619Y-86614762D02*
X106563333Y-86662381D01*
X106372857Y-86662381D01*
X106296667Y-86614762D01*
X106258571Y-86567143D01*
X106220476Y-86471905D01*
X106220476Y-86376667D01*
X106258571Y-86281429D01*
X106296667Y-86233810D01*
X106372857Y-86186190D01*
X106525238Y-86138571D01*
X106601429Y-86090952D01*
X106639524Y-86043333D01*
X106677619Y-85948095D01*
X106677619Y-85852857D01*
X106639524Y-85757619D01*
X106601429Y-85710000D01*
X106525238Y-85662381D01*
X106334762Y-85662381D01*
X106220476Y-85710000D01*
X105877619Y-86662381D02*
X105877619Y-85662381D01*
X105534762Y-86662381D02*
X105534762Y-86138571D01*
X105572857Y-86043333D01*
X105649047Y-85995714D01*
X105763333Y-85995714D01*
X105839524Y-86043333D01*
X105877619Y-86090952D01*
X105039523Y-86662381D02*
X105115714Y-86614762D01*
X105153809Y-86567143D01*
X105191904Y-86471905D01*
X105191904Y-86186190D01*
X105153809Y-86090952D01*
X105115714Y-86043333D01*
X105039523Y-85995714D01*
X104925237Y-85995714D01*
X104849047Y-86043333D01*
X104810952Y-86090952D01*
X104772856Y-86186190D01*
X104772856Y-86471905D01*
X104810952Y-86567143D01*
X104849047Y-86614762D01*
X104925237Y-86662381D01*
X105039523Y-86662381D01*
X104429999Y-86662381D02*
X104429999Y-85995714D01*
X104429999Y-86186190D02*
X104391904Y-86090952D01*
X104353808Y-86043333D01*
X104277618Y-85995714D01*
X104201427Y-85995714D01*
X104049047Y-85995714D02*
X103744285Y-85995714D01*
X103934761Y-85662381D02*
X103934761Y-86519524D01*
X103896666Y-86614762D01*
X103820475Y-86662381D01*
X103744285Y-86662381D01*
X102639522Y-85662381D02*
X102639522Y-86376667D01*
X102677618Y-86519524D01*
X102753808Y-86614762D01*
X102868094Y-86662381D01*
X102944284Y-86662381D01*
X102258570Y-86662381D02*
X102258570Y-85662381D01*
X101953808Y-85662381D01*
X101877617Y-85710000D01*
X101839522Y-85757619D01*
X101801427Y-85852857D01*
X101801427Y-85995714D01*
X101839522Y-86090952D01*
X101877617Y-86138571D01*
X101953808Y-86186190D01*
X102258570Y-86186190D01*
X101039522Y-86662381D02*
X101496665Y-86662381D01*
X101268094Y-86662381D02*
X101268094Y-85662381D01*
X101344284Y-85805238D01*
X101420475Y-85900476D01*
X101496665Y-85948095D01*
X99744284Y-86662381D02*
X99744284Y-86138571D01*
X99782379Y-86043333D01*
X99858569Y-85995714D01*
X100010950Y-85995714D01*
X100087141Y-86043333D01*
X99744284Y-86614762D02*
X99820474Y-86662381D01*
X100010950Y-86662381D01*
X100087141Y-86614762D01*
X100125236Y-86519524D01*
X100125236Y-86424286D01*
X100087141Y-86329048D01*
X100010950Y-86281429D01*
X99820474Y-86281429D01*
X99744284Y-86233810D01*
X99363331Y-85995714D02*
X99363331Y-86662381D01*
X99363331Y-86090952D02*
X99325236Y-86043333D01*
X99249045Y-85995714D01*
X99134759Y-85995714D01*
X99058569Y-86043333D01*
X99020474Y-86138571D01*
X99020474Y-86662381D01*
X98296664Y-86662381D02*
X98296664Y-85662381D01*
X98296664Y-86614762D02*
X98372854Y-86662381D01*
X98525235Y-86662381D01*
X98601426Y-86614762D01*
X98639521Y-86567143D01*
X98677616Y-86471905D01*
X98677616Y-86186190D01*
X98639521Y-86090952D01*
X98601426Y-86043333D01*
X98525235Y-85995714D01*
X98372854Y-85995714D01*
X98296664Y-86043333D01*
X96963330Y-86662381D02*
X96963330Y-85662381D01*
X96963330Y-86614762D02*
X97039520Y-86662381D01*
X97191901Y-86662381D01*
X97268092Y-86614762D01*
X97306187Y-86567143D01*
X97344282Y-86471905D01*
X97344282Y-86186190D01*
X97306187Y-86090952D01*
X97268092Y-86043333D01*
X97191901Y-85995714D01*
X97039520Y-85995714D01*
X96963330Y-86043333D01*
X96468091Y-86662381D02*
X96544282Y-86614762D01*
X96582377Y-86567143D01*
X96620472Y-86471905D01*
X96620472Y-86186190D01*
X96582377Y-86090952D01*
X96544282Y-86043333D01*
X96468091Y-85995714D01*
X96353805Y-85995714D01*
X96277615Y-86043333D01*
X96239520Y-86090952D01*
X96201424Y-86186190D01*
X96201424Y-86471905D01*
X96239520Y-86567143D01*
X96277615Y-86614762D01*
X96353805Y-86662381D01*
X96468091Y-86662381D01*
X95858567Y-85995714D02*
X95858567Y-86662381D01*
X95858567Y-86090952D02*
X95820472Y-86043333D01*
X95744281Y-85995714D01*
X95629995Y-85995714D01*
X95553805Y-86043333D01*
X95515710Y-86138571D01*
X95515710Y-86662381D01*
X95096662Y-85662381D02*
X95172852Y-85852857D01*
X94868091Y-85995714D02*
X94563329Y-85995714D01*
X94753805Y-85662381D02*
X94753805Y-86519524D01*
X94715710Y-86614762D01*
X94639519Y-86662381D01*
X94563329Y-86662381D01*
X93687138Y-85995714D02*
X93687138Y-86995714D01*
X93687138Y-86043333D02*
X93610947Y-85995714D01*
X93458566Y-85995714D01*
X93382376Y-86043333D01*
X93344281Y-86090952D01*
X93306185Y-86186190D01*
X93306185Y-86471905D01*
X93344281Y-86567143D01*
X93382376Y-86614762D01*
X93458566Y-86662381D01*
X93610947Y-86662381D01*
X93687138Y-86614762D01*
X92849042Y-86662381D02*
X92925233Y-86614762D01*
X92963328Y-86567143D01*
X93001423Y-86471905D01*
X93001423Y-86186190D01*
X92963328Y-86090952D01*
X92925233Y-86043333D01*
X92849042Y-85995714D01*
X92734756Y-85995714D01*
X92658566Y-86043333D01*
X92620471Y-86090952D01*
X92582375Y-86186190D01*
X92582375Y-86471905D01*
X92620471Y-86567143D01*
X92658566Y-86614762D01*
X92734756Y-86662381D01*
X92849042Y-86662381D01*
X92239518Y-85995714D02*
X92239518Y-86995714D01*
X92239518Y-86043333D02*
X92163327Y-85995714D01*
X92010946Y-85995714D01*
X91934756Y-86043333D01*
X91896661Y-86090952D01*
X91858565Y-86186190D01*
X91858565Y-86471905D01*
X91896661Y-86567143D01*
X91934756Y-86614762D01*
X92010946Y-86662381D01*
X92163327Y-86662381D01*
X92239518Y-86614762D01*
X91172851Y-85995714D02*
X91172851Y-86662381D01*
X91515708Y-85995714D02*
X91515708Y-86519524D01*
X91477613Y-86614762D01*
X91401422Y-86662381D01*
X91287136Y-86662381D01*
X91210946Y-86614762D01*
X91172851Y-86567143D01*
X90677612Y-86662381D02*
X90753803Y-86614762D01*
X90791898Y-86519524D01*
X90791898Y-85662381D01*
X90029993Y-86662381D02*
X90029993Y-86138571D01*
X90068088Y-86043333D01*
X90144278Y-85995714D01*
X90296659Y-85995714D01*
X90372850Y-86043333D01*
X90029993Y-86614762D02*
X90106183Y-86662381D01*
X90296659Y-86662381D01*
X90372850Y-86614762D01*
X90410945Y-86519524D01*
X90410945Y-86424286D01*
X90372850Y-86329048D01*
X90296659Y-86281429D01*
X90106183Y-86281429D01*
X90029993Y-86233810D01*
X89763326Y-85995714D02*
X89458564Y-85995714D01*
X89649040Y-85662381D02*
X89649040Y-86519524D01*
X89610945Y-86614762D01*
X89534754Y-86662381D01*
X89458564Y-86662381D01*
X88887135Y-86614762D02*
X88963325Y-86662381D01*
X89115706Y-86662381D01*
X89191897Y-86614762D01*
X89229992Y-86519524D01*
X89229992Y-86138571D01*
X89191897Y-86043333D01*
X89115706Y-85995714D01*
X88963325Y-85995714D01*
X88887135Y-86043333D01*
X88849040Y-86138571D01*
X88849040Y-86233810D01*
X89229992Y-86329048D01*
X106639524Y-87212381D02*
X106639524Y-88021905D01*
X106601429Y-88117143D01*
X106563333Y-88164762D01*
X106487143Y-88212381D01*
X106334762Y-88212381D01*
X106258571Y-88164762D01*
X106220476Y-88117143D01*
X106182381Y-88021905D01*
X106182381Y-87212381D01*
X105382381Y-88212381D02*
X105839524Y-88212381D01*
X105610953Y-88212381D02*
X105610953Y-87212381D01*
X105687143Y-87355238D01*
X105763334Y-87450476D01*
X105839524Y-87498095D01*
X104544286Y-87545714D02*
X104239524Y-87545714D01*
X104430000Y-87212381D02*
X104430000Y-88069524D01*
X104391905Y-88164762D01*
X104315714Y-88212381D01*
X104239524Y-88212381D01*
X103858571Y-88212381D02*
X103934762Y-88164762D01*
X103972857Y-88117143D01*
X104010952Y-88021905D01*
X104010952Y-87736190D01*
X103972857Y-87640952D01*
X103934762Y-87593333D01*
X103858571Y-87545714D01*
X103744285Y-87545714D01*
X103668095Y-87593333D01*
X103630000Y-87640952D01*
X103591904Y-87736190D01*
X103591904Y-88021905D01*
X103630000Y-88117143D01*
X103668095Y-88164762D01*
X103744285Y-88212381D01*
X103858571Y-88212381D01*
X102296666Y-87545714D02*
X102296666Y-88212381D01*
X102639523Y-87545714D02*
X102639523Y-88069524D01*
X102601428Y-88164762D01*
X102525237Y-88212381D01*
X102410951Y-88212381D01*
X102334761Y-88164762D01*
X102296666Y-88117143D01*
X101953808Y-88164762D02*
X101877618Y-88212381D01*
X101725237Y-88212381D01*
X101649046Y-88164762D01*
X101610951Y-88069524D01*
X101610951Y-88021905D01*
X101649046Y-87926667D01*
X101725237Y-87879048D01*
X101839522Y-87879048D01*
X101915713Y-87831429D01*
X101953808Y-87736190D01*
X101953808Y-87688571D01*
X101915713Y-87593333D01*
X101839522Y-87545714D01*
X101725237Y-87545714D01*
X101649046Y-87593333D01*
X100963332Y-88164762D02*
X101039522Y-88212381D01*
X101191903Y-88212381D01*
X101268094Y-88164762D01*
X101306189Y-88069524D01*
X101306189Y-87688571D01*
X101268094Y-87593333D01*
X101191903Y-87545714D01*
X101039522Y-87545714D01*
X100963332Y-87593333D01*
X100925237Y-87688571D01*
X100925237Y-87783810D01*
X101306189Y-87879048D01*
X100010951Y-87926667D02*
X99629999Y-87926667D01*
X100087142Y-88212381D02*
X99820475Y-87212381D01*
X99553808Y-88212381D01*
X99287142Y-88212381D02*
X99287142Y-87545714D01*
X99287142Y-87736190D02*
X99249047Y-87640952D01*
X99210951Y-87593333D01*
X99134761Y-87545714D01*
X99058570Y-87545714D01*
X98449047Y-88212381D02*
X98449047Y-87212381D01*
X98449047Y-88164762D02*
X98525237Y-88212381D01*
X98677618Y-88212381D01*
X98753809Y-88164762D01*
X98791904Y-88117143D01*
X98829999Y-88021905D01*
X98829999Y-87736190D01*
X98791904Y-87640952D01*
X98753809Y-87593333D01*
X98677618Y-87545714D01*
X98525237Y-87545714D01*
X98449047Y-87593333D01*
X97725237Y-87545714D02*
X97725237Y-88212381D01*
X98068094Y-87545714D02*
X98068094Y-88069524D01*
X98029999Y-88164762D01*
X97953808Y-88212381D01*
X97839522Y-88212381D01*
X97763332Y-88164762D01*
X97725237Y-88117143D01*
X97344284Y-88212381D02*
X97344284Y-87545714D01*
X97344284Y-87212381D02*
X97382379Y-87260000D01*
X97344284Y-87307619D01*
X97306189Y-87260000D01*
X97344284Y-87212381D01*
X97344284Y-87307619D01*
X96963332Y-87545714D02*
X96963332Y-88212381D01*
X96963332Y-87640952D02*
X96925237Y-87593333D01*
X96849046Y-87545714D01*
X96734760Y-87545714D01*
X96658570Y-87593333D01*
X96620475Y-87688571D01*
X96620475Y-88212381D01*
X96125236Y-88212381D02*
X96201427Y-88164762D01*
X96239522Y-88117143D01*
X96277617Y-88021905D01*
X96277617Y-87736190D01*
X96239522Y-87640952D01*
X96201427Y-87593333D01*
X96125236Y-87545714D01*
X96010950Y-87545714D01*
X95934760Y-87593333D01*
X95896665Y-87640952D01*
X95858569Y-87736190D01*
X95858569Y-88021905D01*
X95896665Y-88117143D01*
X95934760Y-88164762D01*
X96010950Y-88212381D01*
X96125236Y-88212381D01*
X94906188Y-88212381D02*
X94906188Y-87545714D01*
X94906188Y-87736190D02*
X94868093Y-87640952D01*
X94829997Y-87593333D01*
X94753807Y-87545714D01*
X94677616Y-87545714D01*
X94106188Y-88164762D02*
X94182378Y-88212381D01*
X94334759Y-88212381D01*
X94410950Y-88164762D01*
X94449045Y-88069524D01*
X94449045Y-87688571D01*
X94410950Y-87593333D01*
X94334759Y-87545714D01*
X94182378Y-87545714D01*
X94106188Y-87593333D01*
X94068093Y-87688571D01*
X94068093Y-87783810D01*
X94449045Y-87879048D01*
X93382379Y-87545714D02*
X93382379Y-88355238D01*
X93420474Y-88450476D01*
X93458569Y-88498095D01*
X93534760Y-88545714D01*
X93649045Y-88545714D01*
X93725236Y-88498095D01*
X93382379Y-88164762D02*
X93458569Y-88212381D01*
X93610950Y-88212381D01*
X93687141Y-88164762D01*
X93725236Y-88117143D01*
X93763331Y-88021905D01*
X93763331Y-87736190D01*
X93725236Y-87640952D01*
X93687141Y-87593333D01*
X93610950Y-87545714D01*
X93458569Y-87545714D01*
X93382379Y-87593333D01*
X92658569Y-87545714D02*
X92658569Y-88212381D01*
X93001426Y-87545714D02*
X93001426Y-88069524D01*
X92963331Y-88164762D01*
X92887140Y-88212381D01*
X92772854Y-88212381D01*
X92696664Y-88164762D01*
X92658569Y-88117143D01*
X92163330Y-88212381D02*
X92239521Y-88164762D01*
X92277616Y-88069524D01*
X92277616Y-87212381D01*
X91515711Y-88212381D02*
X91515711Y-87688571D01*
X91553806Y-87593333D01*
X91629996Y-87545714D01*
X91782377Y-87545714D01*
X91858568Y-87593333D01*
X91515711Y-88164762D02*
X91591901Y-88212381D01*
X91782377Y-88212381D01*
X91858568Y-88164762D01*
X91896663Y-88069524D01*
X91896663Y-87974286D01*
X91858568Y-87879048D01*
X91782377Y-87831429D01*
X91591901Y-87831429D01*
X91515711Y-87783810D01*
X91249044Y-87545714D02*
X90944282Y-87545714D01*
X91134758Y-87212381D02*
X91134758Y-88069524D01*
X91096663Y-88164762D01*
X91020472Y-88212381D01*
X90944282Y-88212381D01*
X90563329Y-88212381D02*
X90639520Y-88164762D01*
X90677615Y-88117143D01*
X90715710Y-88021905D01*
X90715710Y-87736190D01*
X90677615Y-87640952D01*
X90639520Y-87593333D01*
X90563329Y-87545714D01*
X90449043Y-87545714D01*
X90372853Y-87593333D01*
X90334758Y-87640952D01*
X90296662Y-87736190D01*
X90296662Y-88021905D01*
X90334758Y-88117143D01*
X90372853Y-88164762D01*
X90449043Y-88212381D01*
X90563329Y-88212381D01*
X89953805Y-88212381D02*
X89953805Y-87545714D01*
X89953805Y-87736190D02*
X89915710Y-87640952D01*
X89877614Y-87593333D01*
X89801424Y-87545714D01*
X89725233Y-87545714D01*
D12*
X118752143Y-121793571D02*
X117895000Y-121793571D01*
X118323571Y-123293571D02*
X118323571Y-121793571D01*
X117395000Y-123293571D02*
X117395000Y-122293571D01*
X117395000Y-121793571D02*
X117466429Y-121865000D01*
X117395000Y-121936429D01*
X117323572Y-121865000D01*
X117395000Y-121793571D01*
X117395000Y-121936429D01*
X116680714Y-123293571D02*
X116680714Y-122293571D01*
X116680714Y-122436429D02*
X116609286Y-122365000D01*
X116466428Y-122293571D01*
X116252143Y-122293571D01*
X116109286Y-122365000D01*
X116037857Y-122507857D01*
X116037857Y-123293571D01*
X116037857Y-122507857D02*
X115966428Y-122365000D01*
X115823571Y-122293571D01*
X115609286Y-122293571D01*
X115466428Y-122365000D01*
X115395000Y-122507857D01*
X115395000Y-123293571D01*
X114466428Y-123293571D02*
X114609286Y-123222143D01*
X114680714Y-123150714D01*
X114752143Y-123007857D01*
X114752143Y-122579286D01*
X114680714Y-122436429D01*
X114609286Y-122365000D01*
X114466428Y-122293571D01*
X114252143Y-122293571D01*
X114109286Y-122365000D01*
X114037857Y-122436429D01*
X113966428Y-122579286D01*
X113966428Y-123007857D01*
X114037857Y-123150714D01*
X114109286Y-123222143D01*
X114252143Y-123293571D01*
X114466428Y-123293571D01*
X112180714Y-122507857D02*
X111680714Y-122507857D01*
X111466428Y-123293571D02*
X112180714Y-123293571D01*
X112180714Y-121793571D01*
X111466428Y-121793571D01*
X110823571Y-122293571D02*
X110823571Y-123293571D01*
X110823571Y-122436429D02*
X110752143Y-122365000D01*
X110609285Y-122293571D01*
X110395000Y-122293571D01*
X110252143Y-122365000D01*
X110180714Y-122507857D01*
X110180714Y-123293571D01*
X108823571Y-122293571D02*
X108823571Y-123507857D01*
X108895000Y-123650714D01*
X108966428Y-123722143D01*
X109109285Y-123793571D01*
X109323571Y-123793571D01*
X109466428Y-123722143D01*
X108823571Y-123222143D02*
X108966428Y-123293571D01*
X109252142Y-123293571D01*
X109395000Y-123222143D01*
X109466428Y-123150714D01*
X109537857Y-123007857D01*
X109537857Y-122579286D01*
X109466428Y-122436429D01*
X109395000Y-122365000D01*
X109252142Y-122293571D01*
X108966428Y-122293571D01*
X108823571Y-122365000D01*
X107537857Y-123222143D02*
X107680714Y-123293571D01*
X107966428Y-123293571D01*
X108109285Y-123222143D01*
X108180714Y-123079286D01*
X108180714Y-122507857D01*
X108109285Y-122365000D01*
X107966428Y-122293571D01*
X107680714Y-122293571D01*
X107537857Y-122365000D01*
X107466428Y-122507857D01*
X107466428Y-122650714D01*
X108180714Y-122793571D01*
X106609285Y-123293571D02*
X106752143Y-123222143D01*
X106823571Y-123079286D01*
X106823571Y-121793571D01*
X105395000Y-122293571D02*
X105395000Y-123507857D01*
X105466429Y-123650714D01*
X105537857Y-123722143D01*
X105680714Y-123793571D01*
X105895000Y-123793571D01*
X106037857Y-123722143D01*
X105395000Y-123222143D02*
X105537857Y-123293571D01*
X105823571Y-123293571D01*
X105966429Y-123222143D01*
X106037857Y-123150714D01*
X106109286Y-123007857D01*
X106109286Y-122579286D01*
X106037857Y-122436429D01*
X105966429Y-122365000D01*
X105823571Y-122293571D01*
X105537857Y-122293571D01*
X105395000Y-122365000D01*
X104109286Y-123222143D02*
X104252143Y-123293571D01*
X104537857Y-123293571D01*
X104680714Y-123222143D01*
X104752143Y-123079286D01*
X104752143Y-122507857D01*
X104680714Y-122365000D01*
X104537857Y-122293571D01*
X104252143Y-122293571D01*
X104109286Y-122365000D01*
X104037857Y-122507857D01*
X104037857Y-122650714D01*
X104752143Y-122793571D01*
X102823572Y-123222143D02*
X102966429Y-123293571D01*
X103252143Y-123293571D01*
X103395000Y-123222143D01*
X103466429Y-123079286D01*
X103466429Y-122507857D01*
X103395000Y-122365000D01*
X103252143Y-122293571D01*
X102966429Y-122293571D01*
X102823572Y-122365000D01*
X102752143Y-122507857D01*
X102752143Y-122650714D01*
X103466429Y-122793571D01*
X102109286Y-123293571D02*
X102109286Y-122293571D01*
X102109286Y-122579286D02*
X102037858Y-122436429D01*
X101966429Y-122365000D01*
X101823572Y-122293571D01*
X101680715Y-122293571D01*
X100109287Y-121936429D02*
X100037858Y-121865000D01*
X99895001Y-121793571D01*
X99537858Y-121793571D01*
X99395001Y-121865000D01*
X99323572Y-121936429D01*
X99252144Y-122079286D01*
X99252144Y-122222143D01*
X99323572Y-122436429D01*
X100180715Y-123293571D01*
X99252144Y-123293571D01*
X98323573Y-121793571D02*
X98180716Y-121793571D01*
X98037859Y-121865000D01*
X97966430Y-121936429D01*
X97895001Y-122079286D01*
X97823573Y-122365000D01*
X97823573Y-122722143D01*
X97895001Y-123007857D01*
X97966430Y-123150714D01*
X98037859Y-123222143D01*
X98180716Y-123293571D01*
X98323573Y-123293571D01*
X98466430Y-123222143D01*
X98537859Y-123150714D01*
X98609287Y-123007857D01*
X98680716Y-122722143D01*
X98680716Y-122365000D01*
X98609287Y-122079286D01*
X98537859Y-121936429D01*
X98466430Y-121865000D01*
X98323573Y-121793571D01*
X96395002Y-123293571D02*
X97252145Y-123293571D01*
X96823573Y-123293571D02*
X96823573Y-121793571D01*
X96966430Y-122007857D01*
X97109288Y-122150714D01*
X97252145Y-122222143D01*
X95109288Y-121793571D02*
X95395002Y-121793571D01*
X95537859Y-121865000D01*
X95609288Y-121936429D01*
X95752145Y-122150714D01*
X95823574Y-122436429D01*
X95823574Y-123007857D01*
X95752145Y-123150714D01*
X95680717Y-123222143D01*
X95537859Y-123293571D01*
X95252145Y-123293571D01*
X95109288Y-123222143D01*
X95037859Y-123150714D01*
X94966431Y-123007857D01*
X94966431Y-122650714D01*
X95037859Y-122507857D01*
X95109288Y-122436429D01*
X95252145Y-122365000D01*
X95537859Y-122365000D01*
X95680717Y-122436429D01*
X95752145Y-122507857D01*
X95823574Y-122650714D01*
X118537857Y-125693571D02*
X118537857Y-124193571D01*
X117823571Y-125693571D02*
X117823571Y-124193571D01*
X117680714Y-125122143D02*
X117252143Y-125693571D01*
X117252143Y-124693571D02*
X117823571Y-125265000D01*
X116037857Y-125622143D02*
X116180714Y-125693571D01*
X116466428Y-125693571D01*
X116609285Y-125622143D01*
X116680714Y-125479286D01*
X116680714Y-124907857D01*
X116609285Y-124765000D01*
X116466428Y-124693571D01*
X116180714Y-124693571D01*
X116037857Y-124765000D01*
X115966428Y-124907857D01*
X115966428Y-125050714D01*
X116680714Y-125193571D01*
X114680714Y-125693571D02*
X114680714Y-124907857D01*
X114752143Y-124765000D01*
X114895000Y-124693571D01*
X115180714Y-124693571D01*
X115323571Y-124765000D01*
X114680714Y-125622143D02*
X114823571Y-125693571D01*
X115180714Y-125693571D01*
X115323571Y-125622143D01*
X115395000Y-125479286D01*
X115395000Y-125336429D01*
X115323571Y-125193571D01*
X115180714Y-125122143D01*
X114823571Y-125122143D01*
X114680714Y-125050714D01*
X111966428Y-125550714D02*
X112037857Y-125622143D01*
X112252143Y-125693571D01*
X112395000Y-125693571D01*
X112609285Y-125622143D01*
X112752143Y-125479286D01*
X112823571Y-125336429D01*
X112895000Y-125050714D01*
X112895000Y-124836429D01*
X112823571Y-124550714D01*
X112752143Y-124407857D01*
X112609285Y-124265000D01*
X112395000Y-124193571D01*
X112252143Y-124193571D01*
X112037857Y-124265000D01*
X111966428Y-124336429D01*
X111323571Y-125693571D02*
X111323571Y-124193571D01*
X110680714Y-125693571D02*
X110680714Y-124907857D01*
X110752143Y-124765000D01*
X110895000Y-124693571D01*
X111109285Y-124693571D01*
X111252143Y-124765000D01*
X111323571Y-124836429D01*
X109323571Y-125693571D02*
X109323571Y-124907857D01*
X109395000Y-124765000D01*
X109537857Y-124693571D01*
X109823571Y-124693571D01*
X109966428Y-124765000D01*
X109323571Y-125622143D02*
X109466428Y-125693571D01*
X109823571Y-125693571D01*
X109966428Y-125622143D01*
X110037857Y-125479286D01*
X110037857Y-125336429D01*
X109966428Y-125193571D01*
X109823571Y-125122143D01*
X109466428Y-125122143D01*
X109323571Y-125050714D01*
X108609285Y-124693571D02*
X108609285Y-125693571D01*
X108609285Y-124836429D02*
X108537857Y-124765000D01*
X108394999Y-124693571D01*
X108180714Y-124693571D01*
X108037857Y-124765000D01*
X107966428Y-124907857D01*
X107966428Y-125693571D01*
X106609285Y-125693571D02*
X106609285Y-124193571D01*
X106609285Y-125622143D02*
X106752142Y-125693571D01*
X107037856Y-125693571D01*
X107180714Y-125622143D01*
X107252142Y-125550714D01*
X107323571Y-125407857D01*
X107323571Y-124979286D01*
X107252142Y-124836429D01*
X107180714Y-124765000D01*
X107037856Y-124693571D01*
X106752142Y-124693571D01*
X106609285Y-124765000D01*
X105323571Y-125622143D02*
X105466428Y-125693571D01*
X105752142Y-125693571D01*
X105894999Y-125622143D01*
X105966428Y-125479286D01*
X105966428Y-124907857D01*
X105894999Y-124765000D01*
X105752142Y-124693571D01*
X105466428Y-124693571D01*
X105323571Y-124765000D01*
X105252142Y-124907857D01*
X105252142Y-125050714D01*
X105966428Y-125193571D01*
X104394999Y-125693571D02*
X104537857Y-125622143D01*
X104609285Y-125479286D01*
X104609285Y-124193571D01*
X103823571Y-125693571D02*
X103823571Y-124693571D01*
X103823571Y-124193571D02*
X103895000Y-124265000D01*
X103823571Y-124336429D01*
X103752143Y-124265000D01*
X103823571Y-124193571D01*
X103823571Y-124336429D01*
X102537857Y-125622143D02*
X102680714Y-125693571D01*
X102966428Y-125693571D01*
X103109285Y-125622143D01*
X103180714Y-125479286D01*
X103180714Y-124907857D01*
X103109285Y-124765000D01*
X102966428Y-124693571D01*
X102680714Y-124693571D01*
X102537857Y-124765000D01*
X102466428Y-124907857D01*
X102466428Y-125050714D01*
X103180714Y-125193571D01*
X101823571Y-125693571D02*
X101823571Y-124693571D01*
X101823571Y-124979286D02*
X101752143Y-124836429D01*
X101680714Y-124765000D01*
X101537857Y-124693571D01*
X101395000Y-124693571D01*
X99752143Y-124693571D02*
X99752143Y-125693571D01*
X99752143Y-124836429D02*
X99680715Y-124765000D01*
X99537857Y-124693571D01*
X99323572Y-124693571D01*
X99180715Y-124765000D01*
X99109286Y-124907857D01*
X99109286Y-125693571D01*
X98180714Y-125693571D02*
X98323572Y-125622143D01*
X98395000Y-125550714D01*
X98466429Y-125407857D01*
X98466429Y-124979286D01*
X98395000Y-124836429D01*
X98323572Y-124765000D01*
X98180714Y-124693571D01*
X97966429Y-124693571D01*
X97823572Y-124765000D01*
X97752143Y-124836429D01*
X97680714Y-124979286D01*
X97680714Y-125407857D01*
X97752143Y-125550714D01*
X97823572Y-125622143D01*
X97966429Y-125693571D01*
X98180714Y-125693571D01*
X96395000Y-125693571D02*
X96395000Y-124193571D01*
X96395000Y-125622143D02*
X96537857Y-125693571D01*
X96823571Y-125693571D01*
X96966429Y-125622143D01*
X97037857Y-125550714D01*
X97109286Y-125407857D01*
X97109286Y-124979286D01*
X97037857Y-124836429D01*
X96966429Y-124765000D01*
X96823571Y-124693571D01*
X96537857Y-124693571D01*
X96395000Y-124765000D01*
X95109286Y-125622143D02*
X95252143Y-125693571D01*
X95537857Y-125693571D01*
X95680714Y-125622143D01*
X95752143Y-125479286D01*
X95752143Y-124907857D01*
X95680714Y-124765000D01*
X95537857Y-124693571D01*
X95252143Y-124693571D01*
X95109286Y-124765000D01*
X95037857Y-124907857D01*
X95037857Y-125050714D01*
X95752143Y-125193571D01*
X93395000Y-124693571D02*
X93037857Y-125693571D01*
X92680715Y-124693571D01*
X91323572Y-125693571D02*
X92180715Y-125693571D01*
X91752143Y-125693571D02*
X91752143Y-124193571D01*
X91895000Y-124407857D01*
X92037858Y-124550714D01*
X92180715Y-124622143D01*
D11*
X82485000Y-90660000D02*
X82485000Y-89660000D01*
X84185000Y-89660000D02*
X84185000Y-90660000D01*
X114665000Y-99820000D02*
X114665000Y-100820000D01*
X112965000Y-100820000D02*
X112965000Y-99820000D01*
X90185000Y-124665000D02*
X89185000Y-124665000D01*
X89185000Y-122965000D02*
X90185000Y-122965000D01*
X78675000Y-103360000D02*
X78675000Y-102360000D01*
X80375000Y-102360000D02*
X80375000Y-103360000D01*
X114690000Y-104730000D02*
X114690000Y-103530000D01*
X112940000Y-103530000D02*
X112940000Y-104730000D01*
X84640000Y-124690000D02*
X85840000Y-124690000D01*
X85840000Y-122940000D02*
X84640000Y-122940000D01*
X83692143Y-93168334D02*
X83739762Y-93120715D01*
X83787381Y-92977858D01*
X83787381Y-92882620D01*
X83739762Y-92739762D01*
X83644524Y-92644524D01*
X83549286Y-92596905D01*
X83358810Y-92549286D01*
X83215952Y-92549286D01*
X83025476Y-92596905D01*
X82930238Y-92644524D01*
X82835000Y-92739762D01*
X82787381Y-92882620D01*
X82787381Y-92977858D01*
X82835000Y-93120715D01*
X82882619Y-93168334D01*
X82787381Y-93501667D02*
X82787381Y-94120715D01*
X83168333Y-93787381D01*
X83168333Y-93930239D01*
X83215952Y-94025477D01*
X83263571Y-94073096D01*
X83358810Y-94120715D01*
X83596905Y-94120715D01*
X83692143Y-94073096D01*
X83739762Y-94025477D01*
X83787381Y-93930239D01*
X83787381Y-93644524D01*
X83739762Y-93549286D01*
X83692143Y-93501667D01*
X112267143Y-100153334D02*
X112314762Y-100105715D01*
X112362381Y-99962858D01*
X112362381Y-99867620D01*
X112314762Y-99724762D01*
X112219524Y-99629524D01*
X112124286Y-99581905D01*
X111933810Y-99534286D01*
X111790952Y-99534286D01*
X111600476Y-99581905D01*
X111505238Y-99629524D01*
X111410000Y-99724762D01*
X111362381Y-99867620D01*
X111362381Y-99962858D01*
X111410000Y-100105715D01*
X111457619Y-100153334D01*
X111695714Y-101010477D02*
X112362381Y-101010477D01*
X111314762Y-100772381D02*
X112029048Y-100534286D01*
X112029048Y-101153334D01*
X89851666Y-122267143D02*
X89899285Y-122314762D01*
X90042142Y-122362381D01*
X90137380Y-122362381D01*
X90280238Y-122314762D01*
X90375476Y-122219524D01*
X90423095Y-122124286D01*
X90470714Y-121933810D01*
X90470714Y-121790952D01*
X90423095Y-121600476D01*
X90375476Y-121505238D01*
X90280238Y-121410000D01*
X90137380Y-121362381D01*
X90042142Y-121362381D01*
X89899285Y-121410000D01*
X89851666Y-121457619D01*
X88946904Y-121362381D02*
X89423095Y-121362381D01*
X89470714Y-121838571D01*
X89423095Y-121790952D01*
X89327857Y-121743333D01*
X89089761Y-121743333D01*
X88994523Y-121790952D01*
X88946904Y-121838571D01*
X88899285Y-121933810D01*
X88899285Y-122171905D01*
X88946904Y-122267143D01*
X88994523Y-122314762D01*
X89089761Y-122362381D01*
X89327857Y-122362381D01*
X89423095Y-122314762D01*
X89470714Y-122267143D01*
X77782143Y-102693334D02*
X77829762Y-102645715D01*
X77877381Y-102502858D01*
X77877381Y-102407620D01*
X77829762Y-102264762D01*
X77734524Y-102169524D01*
X77639286Y-102121905D01*
X77448810Y-102074286D01*
X77305952Y-102074286D01*
X77115476Y-102121905D01*
X77020238Y-102169524D01*
X76925000Y-102264762D01*
X76877381Y-102407620D01*
X76877381Y-102502858D01*
X76925000Y-102645715D01*
X76972619Y-102693334D01*
X76877381Y-103550477D02*
X76877381Y-103360000D01*
X76925000Y-103264762D01*
X76972619Y-103217143D01*
X77115476Y-103121905D01*
X77305952Y-103074286D01*
X77686905Y-103074286D01*
X77782143Y-103121905D01*
X77829762Y-103169524D01*
X77877381Y-103264762D01*
X77877381Y-103455239D01*
X77829762Y-103550477D01*
X77782143Y-103598096D01*
X77686905Y-103645715D01*
X77448810Y-103645715D01*
X77353571Y-103598096D01*
X77305952Y-103550477D01*
X77258333Y-103455239D01*
X77258333Y-103264762D01*
X77305952Y-103169524D01*
X77353571Y-103121905D01*
X77448810Y-103074286D01*
X112362381Y-103963334D02*
X111886190Y-103630000D01*
X112362381Y-103391905D02*
X111362381Y-103391905D01*
X111362381Y-103772858D01*
X111410000Y-103868096D01*
X111457619Y-103915715D01*
X111552857Y-103963334D01*
X111695714Y-103963334D01*
X111790952Y-103915715D01*
X111838571Y-103868096D01*
X111886190Y-103772858D01*
X111886190Y-103391905D01*
X112362381Y-104915715D02*
X112362381Y-104344286D01*
X112362381Y-104630000D02*
X111362381Y-104630000D01*
X111505238Y-104534762D01*
X111600476Y-104439524D01*
X111648095Y-104344286D01*
X85406666Y-122362381D02*
X85740000Y-121886190D01*
X85978095Y-122362381D02*
X85978095Y-121362381D01*
X85597142Y-121362381D01*
X85501904Y-121410000D01*
X85454285Y-121457619D01*
X85406666Y-121552857D01*
X85406666Y-121695714D01*
X85454285Y-121790952D01*
X85501904Y-121838571D01*
X85597142Y-121886190D01*
X85978095Y-121886190D01*
X85073333Y-121362381D02*
X84454285Y-121362381D01*
X84787619Y-121743333D01*
X84644761Y-121743333D01*
X84549523Y-121790952D01*
X84501904Y-121838571D01*
X84454285Y-121933810D01*
X84454285Y-122171905D01*
X84501904Y-122267143D01*
X84549523Y-122314762D01*
X84644761Y-122362381D01*
X84930476Y-122362381D01*
X85025714Y-122314762D01*
X85073333Y-122267143D01*
M02*
