M48
;DRILL file {KiCad 4.0.2-stable} date 4-8-2016 15:28:03
;FORMAT={-:-/ absolute / metric / decimal}
FMAT,2
METRIC,TZ
T1C0.400
T2C0.600
T3C0.800
T4C0.813
T5C0.998
T6C1.001
T7C1.016
T8C1.524
%
G90
G05
M71
T1
X79.525Y-124.45
X84.605Y-126.355
X85.24Y-89.525
X85.24Y-108.575
X88.415Y-116.195
X89.685Y-115.56
X92.225Y-85.715
X92.86Y-123.815
X93.114Y-96.129
X94.765Y-81.27
X97.305Y-123.18
X111.529Y-98.288
X111.783Y-106.543
X112.545Y-97.78
X112.545Y-104.13
X113.18Y-86.35
X114.45Y-111.115
X115.085Y-94.605
X115.72Y-81.905
T2
X78.255Y-89.525
X79.525Y-90.795
X80.795Y-89.525
T3
X73.175Y-120.005
X73.175Y-127.625
X75.715Y-99.05
X75.715Y-101.59
X75.715Y-104.13
X75.715Y-106.67
X75.715Y-120.005
X75.715Y-127.625
X78.255Y-120.005
X78.255Y-127.625
X80.795Y-120.005
X80.795Y-127.625
X83.335Y-99.05
X83.335Y-101.59
X83.335Y-104.13
X83.335Y-106.67
X83.335Y-120.005
X83.335Y-127.625
X85.875Y-120.005
X85.875Y-127.625
X88.415Y-120.005
X88.415Y-127.625
X90.955Y-120.005
X90.955Y-127.625
X90.995Y-90.795
X90.995Y-103.495
X93.495Y-90.795
X93.495Y-103.495
X93.495Y-120.005
X93.495Y-127.625
X96.035Y-120.005
X96.035Y-127.625
X98.575Y-120.005
X98.575Y-127.625
X101.115Y-120.005
X101.115Y-127.625
X103.655Y-120.005
X103.655Y-127.625
X106.195Y-120.005
X106.195Y-127.625
X110.005Y-83.81
X110.005Y-86.35
X110.005Y-88.89
X110.005Y-91.43
X110.005Y-93.97
X110.005Y-96.51
X110.005Y-99.05
X110.005Y-101.59
X110.005Y-104.13
X110.005Y-106.67
X110.005Y-109.21
X110.005Y-111.75
X110.005Y-114.29
X110.005Y-116.83
X117.625Y-83.81
X117.625Y-86.35
X117.625Y-88.89
X117.625Y-91.43
X117.625Y-93.97
X117.625Y-96.51
X117.625Y-99.05
X117.625Y-101.59
X117.625Y-104.13
X117.625Y-106.67
X117.625Y-109.21
X117.625Y-111.75
X117.625Y-114.29
X117.625Y-116.83
T4
X94.13Y-94.605
X94.13Y-99.685
T5
X87.145Y-82.54
X87.145Y-85.08
X87.145Y-87.62
X87.145Y-90.16
X87.145Y-92.7
X87.145Y-95.24
X87.145Y-97.78
T6
X71.905Y-82.54
X71.905Y-85.08
X71.905Y-87.62
X71.905Y-90.16
X71.905Y-92.7
X71.905Y-95.24
X71.905Y-97.78
X71.905Y-100.32
X71.905Y-102.86
X71.905Y-105.4
X71.905Y-107.94
X71.905Y-110.48
X87.145Y-100.32
X87.145Y-102.86
X87.145Y-105.4
X87.145Y-107.94
X87.145Y-110.48
T7
X76.35Y-113.655
X76.35Y-116.195
X76.985Y-82.54
X78.89Y-113.655
X78.89Y-116.195
X79.525Y-82.54
X81.43Y-113.655
X81.43Y-116.195
X82.065Y-82.54
X83.97Y-113.655
X83.97Y-116.195
X97.305Y-90.795
X97.305Y-93.335
X97.305Y-99.05
X97.305Y-101.59
X99.845Y-90.795
X99.845Y-93.335
X99.845Y-99.05
X99.845Y-101.59
X99.845Y-108.575
X99.845Y-111.115
X99.845Y-113.655
X99.845Y-116.195
X102.385Y-90.795
X102.385Y-93.335
X102.385Y-99.05
X102.385Y-101.59
X102.385Y-108.575
X102.385Y-111.115
X102.385Y-113.655
X102.385Y-116.195
X104.925Y-90.795
X104.925Y-93.335
X104.925Y-99.05
X104.925Y-101.59
T8
X97.305Y-83.81
X102.385Y-83.81
T0
M30
