G04 #@! TF.FileFunction,Soldermask,Top*
%FSLAX46Y46*%
G04 Gerber Fmt 4.6, Leading zero omitted, Abs format (unit mm)*
G04 Created by KiCad (PCBNEW 4.0.2-stable) date 4-8-2016 14:42:32*
%MOMM*%
G01*
G04 APERTURE LIST*
%ADD10C,0.100000*%
%ADD11C,0.010000*%
%ADD12R,1.604800X1.604800*%
%ADD13C,1.604800*%
%ADD14R,2.504440X1.828800*%
%ADD15O,2.504440X1.828800*%
%ADD16O,2.501900X1.828800*%
%ADD17R,2.032000X2.032000*%
%ADD18O,2.032000X2.032000*%
%ADD19R,2.844800X2.844800*%
%ADD20C,2.844800*%
%ADD21R,2.032000X2.336800*%
%ADD22O,2.032000X2.336800*%
%ADD23C,1.305560*%
%ADD24O,1.904800X1.904800*%
%ADD25R,1.004800X1.604800*%
%ADD26R,2.304800X1.304800*%
%ADD27O,2.304800X1.304800*%
%ADD28R,1.304800X2.304800*%
%ADD29O,1.304800X2.304800*%
%ADD30R,0.558800X1.193800*%
%ADD31R,1.701800X1.701800*%
%ADD32C,1.701800*%
G04 APERTURE END LIST*
D10*
D11*
G36*
X90443392Y-81270995D02*
X90533452Y-81273468D01*
X90599168Y-81278926D01*
X90649535Y-81288462D01*
X90693543Y-81303170D01*
X90732750Y-81320593D01*
X90858105Y-81400979D01*
X90964741Y-81510105D01*
X91038043Y-81629833D01*
X91070414Y-81738743D01*
X91083855Y-81869039D01*
X91078559Y-82004340D01*
X91054721Y-82128264D01*
X91031406Y-82190750D01*
X90951020Y-82316105D01*
X90841894Y-82422741D01*
X90722166Y-82496043D01*
X90677867Y-82513523D01*
X90629827Y-82525617D01*
X90569287Y-82533263D01*
X90487489Y-82537397D01*
X90375673Y-82538957D01*
X90320000Y-82539070D01*
X90193574Y-82538284D01*
X90100704Y-82535303D01*
X90032631Y-82529189D01*
X89980595Y-82519004D01*
X89935839Y-82503813D01*
X89917833Y-82496043D01*
X89792557Y-82418361D01*
X89684502Y-82310588D01*
X89608593Y-82190750D01*
X89573642Y-82081643D01*
X89557118Y-81951260D01*
X89559211Y-81815980D01*
X89580118Y-81692187D01*
X89601956Y-81629833D01*
X89679638Y-81504557D01*
X89787411Y-81396502D01*
X89907250Y-81320593D01*
X89952932Y-81300619D01*
X89997316Y-81286748D01*
X90049391Y-81277885D01*
X90118151Y-81272939D01*
X90212586Y-81270815D01*
X90320000Y-81270413D01*
X90443392Y-81270995D01*
X90443392Y-81270995D01*
G37*
X90443392Y-81270995D02*
X90533452Y-81273468D01*
X90599168Y-81278926D01*
X90649535Y-81288462D01*
X90693543Y-81303170D01*
X90732750Y-81320593D01*
X90858105Y-81400979D01*
X90964741Y-81510105D01*
X91038043Y-81629833D01*
X91070414Y-81738743D01*
X91083855Y-81869039D01*
X91078559Y-82004340D01*
X91054721Y-82128264D01*
X91031406Y-82190750D01*
X90951020Y-82316105D01*
X90841894Y-82422741D01*
X90722166Y-82496043D01*
X90677867Y-82513523D01*
X90629827Y-82525617D01*
X90569287Y-82533263D01*
X90487489Y-82537397D01*
X90375673Y-82538957D01*
X90320000Y-82539070D01*
X90193574Y-82538284D01*
X90100704Y-82535303D01*
X90032631Y-82529189D01*
X89980595Y-82519004D01*
X89935839Y-82503813D01*
X89917833Y-82496043D01*
X89792557Y-82418361D01*
X89684502Y-82310588D01*
X89608593Y-82190750D01*
X89573642Y-82081643D01*
X89557118Y-81951260D01*
X89559211Y-81815980D01*
X89580118Y-81692187D01*
X89601956Y-81629833D01*
X89679638Y-81504557D01*
X89787411Y-81396502D01*
X89907250Y-81320593D01*
X89952932Y-81300619D01*
X89997316Y-81286748D01*
X90049391Y-81277885D01*
X90118151Y-81272939D01*
X90212586Y-81270815D01*
X90320000Y-81270413D01*
X90443392Y-81270995D01*
D12*
X93495000Y-103495000D03*
D13*
X90995000Y-103495000D03*
D12*
X93495000Y-90795000D03*
D13*
X90995000Y-90795000D03*
D14*
X71905000Y-82540000D03*
D15*
X71905000Y-85080000D03*
X71905000Y-87620000D03*
X71905000Y-90160000D03*
X71905000Y-92700000D03*
X71905000Y-95240000D03*
X71905000Y-97780000D03*
X71905000Y-100320000D03*
X71905000Y-102860000D03*
X71905000Y-105400000D03*
X71905000Y-107940000D03*
X71905000Y-110480000D03*
X87145000Y-110480000D03*
D16*
X87145000Y-107940000D03*
X87145000Y-105400000D03*
X87145000Y-102860000D03*
X87145000Y-100320000D03*
X87145000Y-97780000D03*
X87145000Y-95240000D03*
X87145000Y-92700000D03*
X87145000Y-90160000D03*
X87145000Y-87620000D03*
X87145000Y-85080000D03*
X87145000Y-82540000D03*
D17*
X97305000Y-93335000D03*
D18*
X97305000Y-90795000D03*
X99845000Y-93335000D03*
X99845000Y-90795000D03*
X102385000Y-93335000D03*
X102385000Y-90795000D03*
X104925000Y-93335000D03*
X104925000Y-90795000D03*
D19*
X97305000Y-83810000D03*
D20*
X102385000Y-83810000D03*
D17*
X97305000Y-101590000D03*
D18*
X97305000Y-99050000D03*
X99845000Y-101590000D03*
X99845000Y-99050000D03*
X102385000Y-101590000D03*
X102385000Y-99050000D03*
X104925000Y-101590000D03*
X104925000Y-99050000D03*
D21*
X82065000Y-82540000D03*
D22*
X79525000Y-82540000D03*
X76985000Y-82540000D03*
D17*
X99845000Y-108575000D03*
D18*
X102385000Y-108575000D03*
X99845000Y-111115000D03*
X102385000Y-111115000D03*
X99845000Y-113655000D03*
X102385000Y-113655000D03*
X99845000Y-116195000D03*
X102385000Y-116195000D03*
D17*
X83970000Y-113655000D03*
D18*
X83970000Y-116195000D03*
X81430000Y-113655000D03*
X81430000Y-116195000D03*
X78890000Y-113655000D03*
X78890000Y-116195000D03*
X76350000Y-113655000D03*
X76350000Y-116195000D03*
D23*
X79525000Y-90795000D03*
X78255000Y-89525000D03*
X80795000Y-89525000D03*
D24*
X75715000Y-99050000D03*
X75715000Y-101590000D03*
X75715000Y-104130000D03*
X75715000Y-106670000D03*
X83335000Y-106670000D03*
X83335000Y-104130000D03*
X83335000Y-101590000D03*
X83335000Y-99050000D03*
D25*
X83020000Y-110480000D03*
X84920000Y-110480000D03*
D26*
X110005000Y-83810000D03*
D27*
X110005000Y-86350000D03*
X110005000Y-88890000D03*
X110005000Y-91430000D03*
X110005000Y-93970000D03*
X110005000Y-96510000D03*
X110005000Y-99050000D03*
X110005000Y-101590000D03*
X110005000Y-104130000D03*
X110005000Y-106670000D03*
X110005000Y-109210000D03*
X110005000Y-111750000D03*
X110005000Y-114290000D03*
X110005000Y-116830000D03*
X117625000Y-116830000D03*
X117625000Y-114290000D03*
X117625000Y-111750000D03*
X117625000Y-109210000D03*
X117625000Y-106670000D03*
X117625000Y-104130000D03*
X117625000Y-101590000D03*
X117625000Y-99050000D03*
X117625000Y-96510000D03*
X117625000Y-93970000D03*
X117625000Y-91430000D03*
X117625000Y-88890000D03*
X117625000Y-86350000D03*
X117625000Y-83810000D03*
D28*
X106195000Y-120005000D03*
D29*
X103655000Y-120005000D03*
X101115000Y-120005000D03*
X98575000Y-120005000D03*
X96035000Y-120005000D03*
X93495000Y-120005000D03*
X90955000Y-120005000D03*
X88415000Y-120005000D03*
X85875000Y-120005000D03*
X83335000Y-120005000D03*
X80795000Y-120005000D03*
X78255000Y-120005000D03*
X75715000Y-120005000D03*
X73175000Y-120005000D03*
X73175000Y-127625000D03*
X75715000Y-127625000D03*
X78255000Y-127625000D03*
X80795000Y-127625000D03*
X83335000Y-127625000D03*
X85875000Y-127625000D03*
X88415000Y-127625000D03*
X90955000Y-127625000D03*
X93495000Y-127625000D03*
X96035000Y-127625000D03*
X98575000Y-127625000D03*
X101115000Y-127625000D03*
X103655000Y-127625000D03*
X106195000Y-127625000D03*
D30*
X89875500Y-81905000D03*
X90764500Y-81905000D03*
D31*
X94130000Y-94605000D03*
D32*
X94130000Y-99685000D03*
M02*
