M48
;DRILL file {KiCad 4.0.2-stable} date 31-7-2016 00:13:14
;FORMAT={-:-/ absolute / inch / decimal}
FMAT,2
INCH,TZ
T1C0.016
T2C0.024
T3C0.031
T4C0.032
T5C0.039
T6C0.039
T7C0.040
T8C0.060
%
G90
G05
M72
T1
X3.1309Y-4.8996
X3.3309Y-4.9746
X3.3559Y-3.5246
X3.3559Y-4.2746
X3.4809Y-4.5746
X3.5309Y-4.5496
X3.6309Y-3.3746
X3.6559Y-4.8746
X3.6659Y-3.7846
X3.7309Y-3.1996
X3.8309Y-4.8496
X4.3909Y-3.8696
X4.4009Y-4.1946
X4.4309Y-3.8496
X4.4309Y-4.0996
X4.4559Y-3.3996
X4.5059Y-4.3746
X4.5309Y-3.7246
X4.5559Y-3.2246
T2
X3.0809Y-3.5246
X3.1309Y-3.5746
X3.1809Y-3.5246
T3
X2.8809Y-4.7246
X2.8809Y-5.0246
X2.9809Y-3.8996
X2.9809Y-3.9996
X2.9809Y-4.0996
X2.9809Y-4.1996
X2.9809Y-4.7246
X2.9809Y-5.0246
X3.0809Y-4.7246
X3.0809Y-5.0246
X3.1809Y-4.7246
X3.1809Y-5.0246
X3.2809Y-3.8996
X3.2809Y-3.9996
X3.2809Y-4.0996
X3.2809Y-4.1996
X3.2809Y-4.7246
X3.2809Y-5.0246
X3.3809Y-4.7246
X3.3809Y-5.0246
X3.4809Y-4.7246
X3.4809Y-5.0246
X3.5809Y-4.7246
X3.5809Y-5.0246
X3.5825Y-3.5746
X3.5825Y-4.0746
X3.6809Y-3.5746
X3.6809Y-4.0746
X3.6809Y-4.7246
X3.6809Y-5.0246
X3.7809Y-4.7246
X3.7809Y-5.0246
X3.8809Y-4.7246
X3.8809Y-5.0246
X3.9809Y-4.7246
X3.9809Y-5.0246
X4.0809Y-4.7246
X4.0809Y-5.0246
X4.1809Y-4.7246
X4.1809Y-5.0246
X4.3309Y-3.2996
X4.3309Y-3.3996
X4.3309Y-3.4996
X4.3309Y-3.5996
X4.3309Y-3.6996
X4.3309Y-3.7996
X4.3309Y-3.8996
X4.3309Y-3.9996
X4.3309Y-4.0996
X4.3309Y-4.1996
X4.3309Y-4.2996
X4.3309Y-4.3996
X4.3309Y-4.4996
X4.3309Y-4.5996
X4.6309Y-3.2996
X4.6309Y-3.3996
X4.6309Y-3.4996
X4.6309Y-3.5996
X4.6309Y-3.6996
X4.6309Y-3.7996
X4.6309Y-3.8996
X4.6309Y-3.9996
X4.6309Y-4.0996
X4.6309Y-4.1996
X4.6309Y-4.2996
X4.6309Y-4.3996
X4.6309Y-4.4996
X4.6309Y-4.5996
T4
X3.7059Y-3.7246
X3.7059Y-3.9246
T5
X3.4309Y-3.2496
X3.4309Y-3.3496
X3.4309Y-3.4496
X3.4309Y-3.5496
X3.4309Y-3.6496
X3.4309Y-3.7496
X3.4309Y-3.8496
T6
X2.8309Y-3.2496
X2.8309Y-3.3496
X2.8309Y-3.4496
X2.8309Y-3.5496
X2.8309Y-3.6496
X2.8309Y-3.7496
X2.8309Y-3.8496
X2.8309Y-3.9496
X2.8309Y-4.0496
X2.8309Y-4.1496
X2.8309Y-4.2496
X2.8309Y-4.3496
X3.4309Y-3.9496
X3.4309Y-4.0496
X3.4309Y-4.1496
X3.4309Y-4.2496
X3.4309Y-4.3496
T7
X3.0059Y-4.4746
X3.0059Y-4.5746
X3.0309Y-3.2496
X3.1059Y-4.4746
X3.1059Y-4.5746
X3.1309Y-3.2496
X3.2059Y-4.4746
X3.2059Y-4.5746
X3.2309Y-3.2496
X3.3059Y-4.4746
X3.3059Y-4.5746
X3.5809Y-3.2246
X3.5809Y-3.3246
X3.8309Y-3.5746
X3.8309Y-3.6746
X3.8309Y-3.8996
X3.8309Y-3.9996
X3.9309Y-3.5746
X3.9309Y-3.6746
X3.9309Y-3.8996
X3.9309Y-3.9996
X3.9309Y-4.2746
X3.9309Y-4.3746
X3.9309Y-4.4746
X3.9309Y-4.5746
X4.0309Y-3.5746
X4.0309Y-3.6746
X4.0309Y-3.8996
X4.0309Y-3.9996
X4.0309Y-4.2746
X4.0309Y-4.3746
X4.0309Y-4.4746
X4.0309Y-4.5746
X4.1309Y-3.5746
X4.1309Y-3.6746
X4.1309Y-3.8996
X4.1309Y-3.9996
T8
X3.8309Y-3.2996
X4.0309Y-3.2996
T0
M30
