G04 #@! TF.FileFunction,Legend,Bot*
%FSLAX46Y46*%
G04 Gerber Fmt 4.6, Leading zero omitted, Abs format (unit mm)*
G04 Created by KiCad (PCBNEW 4.0.2-stable) date 4-8-2016 14:42:32*
%MOMM*%
G01*
G04 APERTURE LIST*
%ADD10C,0.100000*%
%ADD11C,0.150000*%
G04 APERTURE END LIST*
D10*
D11*
X82485000Y-90660000D02*
X82485000Y-89660000D01*
X84185000Y-89660000D02*
X84185000Y-90660000D01*
X114665000Y-99820000D02*
X114665000Y-100820000D01*
X112965000Y-100820000D02*
X112965000Y-99820000D01*
X90185000Y-124665000D02*
X89185000Y-124665000D01*
X89185000Y-122965000D02*
X90185000Y-122965000D01*
X78675000Y-103360000D02*
X78675000Y-102360000D01*
X80375000Y-102360000D02*
X80375000Y-103360000D01*
X114690000Y-104730000D02*
X114690000Y-103530000D01*
X112940000Y-103530000D02*
X112940000Y-104730000D01*
X84640000Y-124690000D02*
X85840000Y-124690000D01*
X85840000Y-122940000D02*
X84640000Y-122940000D01*
X83692143Y-86818334D02*
X83739762Y-86770715D01*
X83787381Y-86627858D01*
X83787381Y-86532620D01*
X83739762Y-86389762D01*
X83644524Y-86294524D01*
X83549286Y-86246905D01*
X83358810Y-86199286D01*
X83215952Y-86199286D01*
X83025476Y-86246905D01*
X82930238Y-86294524D01*
X82835000Y-86389762D01*
X82787381Y-86532620D01*
X82787381Y-86627858D01*
X82835000Y-86770715D01*
X82882619Y-86818334D01*
X82787381Y-87151667D02*
X82787381Y-87770715D01*
X83168333Y-87437381D01*
X83168333Y-87580239D01*
X83215952Y-87675477D01*
X83263571Y-87723096D01*
X83358810Y-87770715D01*
X83596905Y-87770715D01*
X83692143Y-87723096D01*
X83739762Y-87675477D01*
X83787381Y-87580239D01*
X83787381Y-87294524D01*
X83739762Y-87199286D01*
X83692143Y-87151667D01*
X112267143Y-100153334D02*
X112314762Y-100105715D01*
X112362381Y-99962858D01*
X112362381Y-99867620D01*
X112314762Y-99724762D01*
X112219524Y-99629524D01*
X112124286Y-99581905D01*
X111933810Y-99534286D01*
X111790952Y-99534286D01*
X111600476Y-99581905D01*
X111505238Y-99629524D01*
X111410000Y-99724762D01*
X111362381Y-99867620D01*
X111362381Y-99962858D01*
X111410000Y-100105715D01*
X111457619Y-100153334D01*
X111695714Y-101010477D02*
X112362381Y-101010477D01*
X111314762Y-100772381D02*
X112029048Y-100534286D01*
X112029048Y-101153334D01*
X89851666Y-122267143D02*
X89899285Y-122314762D01*
X90042142Y-122362381D01*
X90137380Y-122362381D01*
X90280238Y-122314762D01*
X90375476Y-122219524D01*
X90423095Y-122124286D01*
X90470714Y-121933810D01*
X90470714Y-121790952D01*
X90423095Y-121600476D01*
X90375476Y-121505238D01*
X90280238Y-121410000D01*
X90137380Y-121362381D01*
X90042142Y-121362381D01*
X89899285Y-121410000D01*
X89851666Y-121457619D01*
X88946904Y-121362381D02*
X89423095Y-121362381D01*
X89470714Y-121838571D01*
X89423095Y-121790952D01*
X89327857Y-121743333D01*
X89089761Y-121743333D01*
X88994523Y-121790952D01*
X88946904Y-121838571D01*
X88899285Y-121933810D01*
X88899285Y-122171905D01*
X88946904Y-122267143D01*
X88994523Y-122314762D01*
X89089761Y-122362381D01*
X89327857Y-122362381D01*
X89423095Y-122314762D01*
X89470714Y-122267143D01*
X77782143Y-102693334D02*
X77829762Y-102645715D01*
X77877381Y-102502858D01*
X77877381Y-102407620D01*
X77829762Y-102264762D01*
X77734524Y-102169524D01*
X77639286Y-102121905D01*
X77448810Y-102074286D01*
X77305952Y-102074286D01*
X77115476Y-102121905D01*
X77020238Y-102169524D01*
X76925000Y-102264762D01*
X76877381Y-102407620D01*
X76877381Y-102502858D01*
X76925000Y-102645715D01*
X76972619Y-102693334D01*
X76877381Y-103550477D02*
X76877381Y-103360000D01*
X76925000Y-103264762D01*
X76972619Y-103217143D01*
X77115476Y-103121905D01*
X77305952Y-103074286D01*
X77686905Y-103074286D01*
X77782143Y-103121905D01*
X77829762Y-103169524D01*
X77877381Y-103264762D01*
X77877381Y-103455239D01*
X77829762Y-103550477D01*
X77782143Y-103598096D01*
X77686905Y-103645715D01*
X77448810Y-103645715D01*
X77353571Y-103598096D01*
X77305952Y-103550477D01*
X77258333Y-103455239D01*
X77258333Y-103264762D01*
X77305952Y-103169524D01*
X77353571Y-103121905D01*
X77448810Y-103074286D01*
X112362381Y-103963334D02*
X111886190Y-103630000D01*
X112362381Y-103391905D02*
X111362381Y-103391905D01*
X111362381Y-103772858D01*
X111410000Y-103868096D01*
X111457619Y-103915715D01*
X111552857Y-103963334D01*
X111695714Y-103963334D01*
X111790952Y-103915715D01*
X111838571Y-103868096D01*
X111886190Y-103772858D01*
X111886190Y-103391905D01*
X112362381Y-104915715D02*
X112362381Y-104344286D01*
X112362381Y-104630000D02*
X111362381Y-104630000D01*
X111505238Y-104534762D01*
X111600476Y-104439524D01*
X111648095Y-104344286D01*
X85406666Y-122362381D02*
X85740000Y-121886190D01*
X85978095Y-122362381D02*
X85978095Y-121362381D01*
X85597142Y-121362381D01*
X85501904Y-121410000D01*
X85454285Y-121457619D01*
X85406666Y-121552857D01*
X85406666Y-121695714D01*
X85454285Y-121790952D01*
X85501904Y-121838571D01*
X85597142Y-121886190D01*
X85978095Y-121886190D01*
X85073333Y-121362381D02*
X84454285Y-121362381D01*
X84787619Y-121743333D01*
X84644761Y-121743333D01*
X84549523Y-121790952D01*
X84501904Y-121838571D01*
X84454285Y-121933810D01*
X84454285Y-122171905D01*
X84501904Y-122267143D01*
X84549523Y-122314762D01*
X84644761Y-122362381D01*
X84930476Y-122362381D01*
X85025714Y-122314762D01*
X85073333Y-122267143D01*
M02*
