G04 #@! TF.FileFunction,Soldermask,Top*
%FSLAX46Y46*%
G04 Gerber Fmt 4.6, Leading zero omitted, Abs format (unit mm)*
G04 Created by KiCad (PCBNEW 4.0.2-stable) date 31-7-2016 00:13:12*
%MOMM*%
G01*
G04 APERTURE LIST*
%ADD10C,0.100000*%
%ADD11R,1.700000X1.700000*%
%ADD12C,1.700000*%
%ADD13R,2.599640X1.924000*%
%ADD14O,2.599640X1.924000*%
%ADD15O,2.597100X1.924000*%
%ADD16R,2.432000X2.432000*%
%ADD17O,2.432000X2.432000*%
%ADD18R,2.127200X2.127200*%
%ADD19O,2.127200X2.127200*%
%ADD20R,2.940000X2.940000*%
%ADD21C,2.940000*%
%ADD22R,2.127200X2.432000*%
%ADD23O,2.127200X2.432000*%
%ADD24C,1.400760*%
%ADD25O,2.000000X2.000000*%
%ADD26R,1.797000X1.797000*%
%ADD27C,1.797000*%
%ADD28R,1.100000X1.700000*%
%ADD29R,2.400000X1.400000*%
%ADD30O,2.400000X1.400000*%
%ADD31R,1.400000X2.400000*%
%ADD32O,1.400000X2.400000*%
G04 APERTURE END LIST*
D10*
D11*
X93495000Y-103495000D03*
D12*
X90995000Y-103495000D03*
D11*
X93495000Y-90795000D03*
D12*
X90995000Y-90795000D03*
D13*
X71905000Y-82540000D03*
D14*
X71905000Y-85080000D03*
X71905000Y-87620000D03*
X71905000Y-90160000D03*
X71905000Y-92700000D03*
X71905000Y-95240000D03*
X71905000Y-97780000D03*
X71905000Y-100320000D03*
X71905000Y-102860000D03*
X71905000Y-105400000D03*
X71905000Y-107940000D03*
X71905000Y-110480000D03*
X87145000Y-110480000D03*
D15*
X87145000Y-107940000D03*
X87145000Y-105400000D03*
X87145000Y-102860000D03*
X87145000Y-100320000D03*
X87145000Y-97780000D03*
X87145000Y-95240000D03*
X87145000Y-92700000D03*
X87145000Y-90160000D03*
X87145000Y-87620000D03*
X87145000Y-85080000D03*
X87145000Y-82540000D03*
D16*
X90955000Y-81905000D03*
D17*
X90955000Y-84445000D03*
D18*
X97305000Y-93335000D03*
D19*
X97305000Y-90795000D03*
X99845000Y-93335000D03*
X99845000Y-90795000D03*
X102385000Y-93335000D03*
X102385000Y-90795000D03*
X104925000Y-93335000D03*
X104925000Y-90795000D03*
D20*
X97305000Y-83810000D03*
D21*
X102385000Y-83810000D03*
D18*
X97305000Y-101590000D03*
D19*
X97305000Y-99050000D03*
X99845000Y-101590000D03*
X99845000Y-99050000D03*
X102385000Y-101590000D03*
X102385000Y-99050000D03*
X104925000Y-101590000D03*
X104925000Y-99050000D03*
D22*
X82065000Y-82540000D03*
D23*
X79525000Y-82540000D03*
X76985000Y-82540000D03*
D18*
X99845000Y-108575000D03*
D19*
X102385000Y-108575000D03*
X99845000Y-111115000D03*
X102385000Y-111115000D03*
X99845000Y-113655000D03*
X102385000Y-113655000D03*
X99845000Y-116195000D03*
X102385000Y-116195000D03*
D18*
X83970000Y-113655000D03*
D19*
X83970000Y-116195000D03*
X81430000Y-113655000D03*
X81430000Y-116195000D03*
X78890000Y-113655000D03*
X78890000Y-116195000D03*
X76350000Y-113655000D03*
X76350000Y-116195000D03*
D24*
X79525000Y-90795000D03*
X78255000Y-89525000D03*
X80795000Y-89525000D03*
D25*
X75715000Y-99050000D03*
X75715000Y-101590000D03*
X75715000Y-104130000D03*
X75715000Y-106670000D03*
X83335000Y-106670000D03*
X83335000Y-104130000D03*
X83335000Y-101590000D03*
X83335000Y-99050000D03*
D26*
X94130000Y-99685000D03*
D27*
X94130000Y-94605000D03*
D28*
X83020000Y-110480000D03*
X84920000Y-110480000D03*
D29*
X110005000Y-83810000D03*
D30*
X110005000Y-86350000D03*
X110005000Y-88890000D03*
X110005000Y-91430000D03*
X110005000Y-93970000D03*
X110005000Y-96510000D03*
X110005000Y-99050000D03*
X110005000Y-101590000D03*
X110005000Y-104130000D03*
X110005000Y-106670000D03*
X110005000Y-109210000D03*
X110005000Y-111750000D03*
X110005000Y-114290000D03*
X110005000Y-116830000D03*
X117625000Y-116830000D03*
X117625000Y-114290000D03*
X117625000Y-111750000D03*
X117625000Y-109210000D03*
X117625000Y-106670000D03*
X117625000Y-104130000D03*
X117625000Y-101590000D03*
X117625000Y-99050000D03*
X117625000Y-96510000D03*
X117625000Y-93970000D03*
X117625000Y-91430000D03*
X117625000Y-88890000D03*
X117625000Y-86350000D03*
X117625000Y-83810000D03*
D31*
X106195000Y-120005000D03*
D32*
X103655000Y-120005000D03*
X101115000Y-120005000D03*
X98575000Y-120005000D03*
X96035000Y-120005000D03*
X93495000Y-120005000D03*
X90955000Y-120005000D03*
X88415000Y-120005000D03*
X85875000Y-120005000D03*
X83335000Y-120005000D03*
X80795000Y-120005000D03*
X78255000Y-120005000D03*
X75715000Y-120005000D03*
X73175000Y-120005000D03*
X73175000Y-127625000D03*
X75715000Y-127625000D03*
X78255000Y-127625000D03*
X80795000Y-127625000D03*
X83335000Y-127625000D03*
X85875000Y-127625000D03*
X88415000Y-127625000D03*
X90955000Y-127625000D03*
X93495000Y-127625000D03*
X96035000Y-127625000D03*
X98575000Y-127625000D03*
X101115000Y-127625000D03*
X103655000Y-127625000D03*
X106195000Y-127625000D03*
M02*
