G04 #@! TF.FileFunction,Copper,L1,Top,Signal*
%FSLAX46Y46*%
G04 Gerber Fmt 4.6, Leading zero omitted, Abs format (unit mm)*
G04 Created by KiCad (PCBNEW 4.0.2-stable) date 31-7-2016 00:13:12*
%MOMM*%
G01*
G04 APERTURE LIST*
%ADD10C,0.100000*%
%ADD11R,1.300000X1.300000*%
%ADD12C,1.300000*%
%ADD13R,2.199640X1.524000*%
%ADD14O,2.199640X1.524000*%
%ADD15O,2.197100X1.524000*%
%ADD16R,2.032000X2.032000*%
%ADD17O,2.032000X2.032000*%
%ADD18R,1.727200X1.727200*%
%ADD19O,1.727200X1.727200*%
%ADD20R,2.540000X2.540000*%
%ADD21C,2.540000*%
%ADD22R,1.727200X2.032000*%
%ADD23O,1.727200X2.032000*%
%ADD24C,1.000760*%
%ADD25O,1.600000X1.600000*%
%ADD26R,1.397000X1.397000*%
%ADD27C,1.397000*%
%ADD28R,0.700000X1.300000*%
%ADD29R,2.000000X1.000000*%
%ADD30O,2.000000X1.000000*%
%ADD31R,1.000000X2.000000*%
%ADD32O,1.000000X2.000000*%
%ADD33C,0.600000*%
%ADD34C,1.800000*%
%ADD35C,0.500000*%
%ADD36C,0.250000*%
%ADD37C,1.000000*%
%ADD38C,0.254000*%
G04 APERTURE END LIST*
D10*
D11*
X93495000Y-103495000D03*
D12*
X90995000Y-103495000D03*
D11*
X93495000Y-90795000D03*
D12*
X90995000Y-90795000D03*
D13*
X71905000Y-82540000D03*
D14*
X71905000Y-85080000D03*
X71905000Y-87620000D03*
X71905000Y-90160000D03*
X71905000Y-92700000D03*
X71905000Y-95240000D03*
X71905000Y-97780000D03*
X71905000Y-100320000D03*
X71905000Y-102860000D03*
X71905000Y-105400000D03*
X71905000Y-107940000D03*
X71905000Y-110480000D03*
X87145000Y-110480000D03*
D15*
X87145000Y-107940000D03*
X87145000Y-105400000D03*
X87145000Y-102860000D03*
X87145000Y-100320000D03*
X87145000Y-97780000D03*
X87145000Y-95240000D03*
X87145000Y-92700000D03*
X87145000Y-90160000D03*
X87145000Y-87620000D03*
X87145000Y-85080000D03*
X87145000Y-82540000D03*
D16*
X90955000Y-81905000D03*
D17*
X90955000Y-84445000D03*
D18*
X97305000Y-93335000D03*
D19*
X97305000Y-90795000D03*
X99845000Y-93335000D03*
X99845000Y-90795000D03*
X102385000Y-93335000D03*
X102385000Y-90795000D03*
X104925000Y-93335000D03*
X104925000Y-90795000D03*
D20*
X97305000Y-83810000D03*
D21*
X102385000Y-83810000D03*
D18*
X97305000Y-101590000D03*
D19*
X97305000Y-99050000D03*
X99845000Y-101590000D03*
X99845000Y-99050000D03*
X102385000Y-101590000D03*
X102385000Y-99050000D03*
X104925000Y-101590000D03*
X104925000Y-99050000D03*
D22*
X82065000Y-82540000D03*
D23*
X79525000Y-82540000D03*
X76985000Y-82540000D03*
D18*
X99845000Y-108575000D03*
D19*
X102385000Y-108575000D03*
X99845000Y-111115000D03*
X102385000Y-111115000D03*
X99845000Y-113655000D03*
X102385000Y-113655000D03*
X99845000Y-116195000D03*
X102385000Y-116195000D03*
D18*
X83970000Y-113655000D03*
D19*
X83970000Y-116195000D03*
X81430000Y-113655000D03*
X81430000Y-116195000D03*
X78890000Y-113655000D03*
X78890000Y-116195000D03*
X76350000Y-113655000D03*
X76350000Y-116195000D03*
D24*
X79525000Y-90795000D03*
X78255000Y-89525000D03*
X80795000Y-89525000D03*
D25*
X75715000Y-99050000D03*
X75715000Y-101590000D03*
X75715000Y-104130000D03*
X75715000Y-106670000D03*
X83335000Y-106670000D03*
X83335000Y-104130000D03*
X83335000Y-101590000D03*
X83335000Y-99050000D03*
D26*
X94130000Y-99685000D03*
D27*
X94130000Y-94605000D03*
D28*
X83020000Y-110480000D03*
X84920000Y-110480000D03*
D29*
X110005000Y-83810000D03*
D30*
X110005000Y-86350000D03*
X110005000Y-88890000D03*
X110005000Y-91430000D03*
X110005000Y-93970000D03*
X110005000Y-96510000D03*
X110005000Y-99050000D03*
X110005000Y-101590000D03*
X110005000Y-104130000D03*
X110005000Y-106670000D03*
X110005000Y-109210000D03*
X110005000Y-111750000D03*
X110005000Y-114290000D03*
X110005000Y-116830000D03*
X117625000Y-116830000D03*
X117625000Y-114290000D03*
X117625000Y-111750000D03*
X117625000Y-109210000D03*
X117625000Y-106670000D03*
X117625000Y-104130000D03*
X117625000Y-101590000D03*
X117625000Y-99050000D03*
X117625000Y-96510000D03*
X117625000Y-93970000D03*
X117625000Y-91430000D03*
X117625000Y-88890000D03*
X117625000Y-86350000D03*
X117625000Y-83810000D03*
D31*
X106195000Y-120005000D03*
D32*
X103655000Y-120005000D03*
X101115000Y-120005000D03*
X98575000Y-120005000D03*
X96035000Y-120005000D03*
X93495000Y-120005000D03*
X90955000Y-120005000D03*
X88415000Y-120005000D03*
X85875000Y-120005000D03*
X83335000Y-120005000D03*
X80795000Y-120005000D03*
X78255000Y-120005000D03*
X75715000Y-120005000D03*
X73175000Y-120005000D03*
X73175000Y-127625000D03*
X75715000Y-127625000D03*
X78255000Y-127625000D03*
X80795000Y-127625000D03*
X83335000Y-127625000D03*
X85875000Y-127625000D03*
X88415000Y-127625000D03*
X90955000Y-127625000D03*
X93495000Y-127625000D03*
X96035000Y-127625000D03*
X98575000Y-127625000D03*
X101115000Y-127625000D03*
X103655000Y-127625000D03*
X106195000Y-127625000D03*
D33*
X84605000Y-126355000D03*
X112545000Y-104130000D03*
X112545000Y-97780000D03*
X113180000Y-86350000D03*
X111529000Y-98288000D03*
X111783000Y-106543000D03*
X93114000Y-96129000D03*
X85240000Y-108575000D03*
X114450000Y-111115000D03*
X79525000Y-124450000D03*
X92860000Y-123815000D03*
X115085000Y-94605000D03*
X88415000Y-116195000D03*
X85240000Y-89525000D03*
X92225000Y-85715000D03*
X94765000Y-81270000D03*
X115720000Y-81905000D03*
X97305000Y-123180000D03*
X89685000Y-115560000D03*
D34*
X97305000Y-93335000D02*
X97305000Y-90795000D01*
X97305000Y-90795000D02*
X97305000Y-83810000D01*
X102385000Y-108575000D02*
X99845000Y-108575000D01*
X99845000Y-108575000D02*
X94765000Y-103495000D01*
X94765000Y-103495000D02*
X93495000Y-103495000D01*
X94130000Y-99685000D02*
X96670000Y-99685000D01*
X96670000Y-99685000D02*
X97305000Y-99050000D01*
X97305000Y-99050000D02*
X97305000Y-99685000D01*
X97305000Y-99685000D02*
X93495000Y-103495000D01*
X93495000Y-103495000D02*
X93495000Y-111750000D01*
X83970000Y-113655000D02*
X89050000Y-113655000D01*
X91590000Y-113655000D02*
X93495000Y-111750000D01*
X89050000Y-113655000D02*
X91590000Y-113655000D01*
X83970000Y-116195000D02*
X83970000Y-113655000D01*
X97305000Y-93335000D02*
X97305000Y-99050000D01*
X97305000Y-99050000D02*
X97305000Y-101590000D01*
D35*
X90955000Y-127625000D02*
X90955000Y-126990000D01*
X90955000Y-126990000D02*
X89685000Y-125720000D01*
X85240000Y-125720000D02*
X84605000Y-126355000D01*
X89685000Y-125720000D02*
X85240000Y-125720000D01*
X112545000Y-97780000D02*
X112545000Y-104130000D01*
D36*
X117625000Y-86350000D02*
X113180000Y-86350000D01*
D35*
X93495000Y-90795000D02*
X93495000Y-85715000D01*
X92225000Y-84445000D02*
X90955000Y-84445000D01*
X93495000Y-85715000D02*
X92225000Y-84445000D01*
X82065000Y-86350000D02*
X84605000Y-83810000D01*
X84605000Y-83810000D02*
X90320000Y-83810000D01*
X90320000Y-83810000D02*
X90955000Y-84445000D01*
X80795000Y-89525000D02*
X80795000Y-87620000D01*
X80795000Y-87620000D02*
X82065000Y-86350000D01*
X93495000Y-90795000D02*
X93495000Y-88890000D01*
X93495000Y-90795000D02*
X93495000Y-93970000D01*
X93495000Y-93970000D02*
X94130000Y-94605000D01*
X78255000Y-89525000D02*
X78255000Y-92065000D01*
X84605000Y-92700000D02*
X85240000Y-92065000D01*
X78890000Y-92700000D02*
X84605000Y-92700000D01*
X78255000Y-92065000D02*
X78890000Y-92700000D01*
X111529000Y-98288000D02*
X111783000Y-98542000D01*
X111783000Y-98542000D02*
X111783000Y-106543000D01*
X83335000Y-99050000D02*
X85240000Y-97145000D01*
X87145000Y-90160000D02*
X86510000Y-90795000D01*
D36*
X85240000Y-108575000D02*
X84605000Y-108575000D01*
X84605000Y-108575000D02*
X83020000Y-110160000D01*
X83020000Y-110160000D02*
X83020000Y-110480000D01*
D35*
X85240000Y-92065000D02*
X87145000Y-90160000D01*
X85240000Y-97145000D02*
X85240000Y-92065000D01*
X85240000Y-108575000D02*
X85240000Y-97145000D01*
D36*
X88415000Y-127625000D02*
X86510000Y-129530000D01*
X85240000Y-129530000D02*
X83335000Y-127625000D01*
X86510000Y-129530000D02*
X85240000Y-129530000D01*
X117625000Y-106670000D02*
X119530000Y-104765000D01*
X118895000Y-101590000D02*
X117625000Y-101590000D01*
X119530000Y-102225000D02*
X118895000Y-101590000D01*
X119530000Y-104765000D02*
X119530000Y-102225000D01*
D35*
X92225000Y-95240000D02*
X93114000Y-96129000D01*
X92225000Y-95240000D02*
X87145000Y-90160000D01*
X89304000Y-92319000D02*
X87145000Y-90160000D01*
D36*
X75715000Y-106670000D02*
X76985000Y-105400000D01*
X74445000Y-85080000D02*
X71905000Y-82540000D01*
X74445000Y-92700000D02*
X74445000Y-85080000D01*
X76985000Y-95240000D02*
X74445000Y-92700000D01*
X76985000Y-105400000D02*
X76985000Y-95240000D01*
X71905000Y-85080000D02*
X73810000Y-86985000D01*
X75715000Y-95240000D02*
X75715000Y-99050000D01*
X73810000Y-93335000D02*
X75715000Y-95240000D01*
X73810000Y-86985000D02*
X73810000Y-93335000D01*
X75715000Y-104130000D02*
X75715000Y-101590000D01*
X75715000Y-101590000D02*
X74445000Y-100320000D01*
X74445000Y-100320000D02*
X74445000Y-95240000D01*
X74445000Y-95240000D02*
X71905000Y-92700000D01*
X101115000Y-124450000D02*
X111275000Y-124450000D01*
X111275000Y-124450000D02*
X114450000Y-121275000D01*
X114450000Y-121275000D02*
X114450000Y-111115000D01*
X101115000Y-124450000D02*
X82065000Y-124450000D01*
X79525000Y-124450000D02*
X82065000Y-124450000D01*
X79525000Y-124450000D02*
X73175000Y-124450000D01*
X73175000Y-124450000D02*
X71905000Y-123180000D01*
X71905000Y-95240000D02*
X72540000Y-95240000D01*
X72540000Y-95240000D02*
X73810000Y-96510000D01*
X71905000Y-112595000D02*
X71905000Y-123180000D01*
X73810000Y-110690000D02*
X71905000Y-112595000D01*
X73810000Y-96510000D02*
X73810000Y-110690000D01*
X83335000Y-125085000D02*
X72540000Y-125085000D01*
X72540000Y-125085000D02*
X71270000Y-123815000D01*
X96035000Y-127625000D02*
X96035000Y-125720000D01*
X96035000Y-125720000D02*
X95400000Y-125085000D01*
X101750000Y-125085000D02*
X95400000Y-125085000D01*
X95400000Y-125085000D02*
X83335000Y-125085000D01*
X104925000Y-125085000D02*
X101750000Y-125085000D01*
X115085000Y-96510000D02*
X115085000Y-121910000D01*
X115085000Y-121910000D02*
X111910000Y-125085000D01*
X111910000Y-125085000D02*
X104925000Y-125085000D01*
X115085000Y-96510000D02*
X117625000Y-93970000D01*
X71905000Y-110480000D02*
X71905000Y-111595000D01*
X71270000Y-112230000D02*
X71270000Y-123815000D01*
X71905000Y-111595000D02*
X71270000Y-112230000D01*
X100480000Y-123815000D02*
X92860000Y-123815000D01*
X92860000Y-123815000D02*
X91590000Y-123815000D01*
X113815000Y-120640000D02*
X113815000Y-95875000D01*
X100480000Y-123815000D02*
X110640000Y-123815000D01*
X110640000Y-123815000D02*
X113815000Y-120640000D01*
X113815000Y-95875000D02*
X115085000Y-94605000D01*
X88415000Y-116195000D02*
X89685000Y-117465000D01*
X89685000Y-117465000D02*
X89685000Y-121910000D01*
X89685000Y-121910000D02*
X91590000Y-123815000D01*
X84920000Y-110480000D02*
X87145000Y-110480000D01*
X92225000Y-85715000D02*
X89050000Y-88890000D01*
X85875000Y-88890000D02*
X85240000Y-89525000D01*
X89050000Y-88890000D02*
X85875000Y-88890000D01*
X115085000Y-81270000D02*
X94765000Y-81270000D01*
X115720000Y-81905000D02*
X115085000Y-81270000D01*
X101115000Y-123180000D02*
X110005000Y-123180000D01*
X89685000Y-115560000D02*
X92225000Y-118100000D01*
X92225000Y-118100000D02*
X92225000Y-122545000D01*
X92225000Y-122545000D02*
X92860000Y-123180000D01*
X92860000Y-123180000D02*
X97305000Y-123180000D01*
X97305000Y-123180000D02*
X101115000Y-123180000D01*
X116355000Y-91430000D02*
X117625000Y-91430000D01*
X113180000Y-94605000D02*
X116355000Y-91430000D01*
X113180000Y-120005000D02*
X113180000Y-94605000D01*
X110005000Y-123180000D02*
X113180000Y-120005000D01*
D35*
X87145000Y-82540000D02*
X87780000Y-81905000D01*
X87780000Y-81905000D02*
X90955000Y-81905000D01*
D37*
X99845000Y-93335000D02*
X101750000Y-95113000D01*
X108735000Y-95113000D02*
X110005000Y-96510000D01*
X101750000Y-95113000D02*
X108735000Y-95113000D01*
X117625000Y-83810000D02*
X113815000Y-83810000D01*
X101115000Y-88890000D02*
X99845000Y-90160000D01*
X104290000Y-88890000D02*
X101115000Y-88890000D01*
X108100000Y-85080000D02*
X104290000Y-88890000D01*
X112545000Y-85080000D02*
X108100000Y-85080000D01*
X113815000Y-83810000D02*
X112545000Y-85080000D01*
X99845000Y-90160000D02*
X99845000Y-90795000D01*
X104925000Y-93335000D02*
X108100000Y-93335000D01*
X108100000Y-93335000D02*
X110005000Y-91430000D01*
X104925000Y-90795000D02*
X106830000Y-90795000D01*
X108735000Y-86350000D02*
X110005000Y-86350000D01*
X108100000Y-86985000D02*
X108735000Y-86350000D01*
X108100000Y-89525000D02*
X108100000Y-86985000D01*
X106830000Y-90795000D02*
X108100000Y-89525000D01*
X110005000Y-86350000D02*
X110005000Y-86350000D01*
X99845000Y-99050000D02*
X101750000Y-97145000D01*
X108735000Y-101590000D02*
X110005000Y-101590000D01*
X108100000Y-100955000D02*
X108735000Y-101590000D01*
X108100000Y-99050000D02*
X108100000Y-100955000D01*
X106195000Y-97145000D02*
X108100000Y-99050000D01*
X101750000Y-97145000D02*
X106195000Y-97145000D01*
X108100000Y-108575000D02*
X108100000Y-112385000D01*
X102385000Y-101590000D02*
X102385000Y-102860000D01*
X108100000Y-112385000D02*
X110005000Y-114290000D01*
X102385000Y-102860000D02*
X108100000Y-108575000D01*
X104925000Y-99050000D02*
X106195000Y-99050000D01*
X108100000Y-106670000D02*
X110005000Y-106670000D01*
X106830000Y-105400000D02*
X108100000Y-106670000D01*
X106830000Y-99685000D02*
X106830000Y-105400000D01*
X106195000Y-99050000D02*
X106830000Y-99685000D01*
D36*
X78890000Y-84445000D02*
X80795000Y-84445000D01*
X82065000Y-101590000D02*
X80795000Y-100320000D01*
X80795000Y-100320000D02*
X80795000Y-96510000D01*
X80795000Y-96510000D02*
X76350000Y-92065000D01*
X76350000Y-92065000D02*
X76350000Y-85715000D01*
X76350000Y-85715000D02*
X77620000Y-84445000D01*
X77620000Y-84445000D02*
X78890000Y-84445000D01*
X83335000Y-101590000D02*
X82065000Y-101590000D01*
X80795000Y-84445000D02*
X82065000Y-83175000D01*
X82065000Y-83175000D02*
X82065000Y-82540000D01*
X75715000Y-92700000D02*
X75715000Y-83810000D01*
X75715000Y-92700000D02*
X80160000Y-97145000D01*
X80160000Y-97145000D02*
X80160000Y-100955000D01*
X83335000Y-104130000D02*
X80160000Y-100955000D01*
X75715000Y-83810000D02*
X76985000Y-82540000D01*
D37*
X99845000Y-111115000D02*
X93495000Y-117465000D01*
X93495000Y-117465000D02*
X93495000Y-120005000D01*
X102385000Y-111115000D02*
X103020000Y-111115000D01*
X99845000Y-113655000D02*
X96035000Y-117465000D01*
X96035000Y-117465000D02*
X96035000Y-120005000D01*
X99845000Y-116195000D02*
X98575000Y-117465000D01*
X98575000Y-117465000D02*
X98575000Y-120005000D01*
X102385000Y-116195000D02*
X103655000Y-117465000D01*
X103655000Y-117465000D02*
X103655000Y-120005000D01*
X81430000Y-116195000D02*
X83335000Y-118100000D01*
X86510000Y-118100000D02*
X88415000Y-120005000D01*
X83335000Y-118100000D02*
X86510000Y-118100000D01*
X75715000Y-120005000D02*
X75715000Y-118100000D01*
X77620000Y-111750000D02*
X78890000Y-113020000D01*
X75715000Y-111750000D02*
X77620000Y-111750000D01*
X74445000Y-113020000D02*
X75715000Y-111750000D01*
X74445000Y-116830000D02*
X74445000Y-113020000D01*
X75715000Y-118100000D02*
X74445000Y-116830000D01*
X78890000Y-113020000D02*
X78890000Y-113655000D01*
X76350000Y-116195000D02*
X78255000Y-118100000D01*
X81430000Y-118100000D02*
X83335000Y-120005000D01*
X78255000Y-118100000D02*
X81430000Y-118100000D01*
D36*
X101115000Y-127625000D02*
X101115000Y-126990000D01*
X101115000Y-126990000D02*
X102385000Y-125720000D01*
X102385000Y-125720000D02*
X112545000Y-125720000D01*
X112545000Y-125720000D02*
X115974000Y-122291000D01*
X115974000Y-122291000D02*
X115974000Y-113401000D01*
X115974000Y-113401000D02*
X117625000Y-111750000D01*
D38*
G36*
X93972808Y-80739673D02*
X93830162Y-81083201D01*
X93829838Y-81455167D01*
X93971883Y-81798943D01*
X94234673Y-82062192D01*
X94578201Y-82204838D01*
X94950167Y-82205162D01*
X95293943Y-82063117D01*
X95327118Y-82030000D01*
X95646975Y-82030000D01*
X95496673Y-82180301D01*
X95400000Y-82413690D01*
X95400000Y-83278250D01*
X95558750Y-83437000D01*
X96932000Y-83437000D01*
X96932000Y-83417000D01*
X97678000Y-83417000D01*
X97678000Y-83437000D01*
X99051250Y-83437000D01*
X99210000Y-83278250D01*
X99210000Y-82413690D01*
X99113327Y-82180301D01*
X98963025Y-82030000D01*
X101704413Y-82030000D01*
X101307314Y-82194078D01*
X100770961Y-82729495D01*
X100480332Y-83429410D01*
X100479670Y-84187265D01*
X100769078Y-84887686D01*
X101304495Y-85424039D01*
X102004410Y-85714668D01*
X102762265Y-85715330D01*
X103462686Y-85425922D01*
X103999039Y-84890505D01*
X104289668Y-84190590D01*
X104290330Y-83432735D01*
X104000922Y-82732314D01*
X103465505Y-82195961D01*
X103065825Y-82030000D01*
X106703000Y-82030000D01*
X106703000Y-84871868D01*
X103819868Y-87755000D01*
X101115000Y-87755000D01*
X100680654Y-87841397D01*
X100505137Y-87958674D01*
X100312434Y-88087434D01*
X99042434Y-89357434D01*
X98829083Y-89676736D01*
X98785330Y-89705971D01*
X98565971Y-90034264D01*
X98347687Y-89718576D01*
X97900463Y-89419782D01*
X97678000Y-89508117D01*
X97678000Y-90422000D01*
X97698000Y-90422000D01*
X97698000Y-91168000D01*
X97678000Y-91168000D01*
X97678000Y-92962000D01*
X97698000Y-92962000D01*
X97698000Y-93708000D01*
X97678000Y-93708000D01*
X97678000Y-94674850D01*
X97836750Y-94833600D01*
X98294910Y-94833600D01*
X98528299Y-94736927D01*
X98706927Y-94558298D01*
X98771263Y-94402977D01*
X98785330Y-94424029D01*
X99271511Y-94748885D01*
X99811516Y-94856299D01*
X100975569Y-95942748D01*
X101147501Y-96049247D01*
X101266860Y-96129000D01*
X101070807Y-96259999D01*
X100947434Y-96342434D01*
X99748665Y-97541203D01*
X99271511Y-97636115D01*
X98785330Y-97960971D01*
X98565971Y-98289264D01*
X98347687Y-97973576D01*
X97900463Y-97674782D01*
X97678000Y-97763117D01*
X97678000Y-98677000D01*
X97698000Y-98677000D01*
X97698000Y-99423000D01*
X97678000Y-99423000D01*
X97678000Y-101217000D01*
X97698000Y-101217000D01*
X97698000Y-101963000D01*
X97678000Y-101963000D01*
X97678000Y-102929850D01*
X97836750Y-103088600D01*
X98294910Y-103088600D01*
X98528299Y-102991927D01*
X98706927Y-102813298D01*
X98771263Y-102657977D01*
X98785330Y-102679029D01*
X99271511Y-103003885D01*
X99845000Y-103117959D01*
X100418489Y-103003885D01*
X100904670Y-102679029D01*
X101115000Y-102364248D01*
X101250000Y-102566290D01*
X101250000Y-102860000D01*
X101336397Y-103294346D01*
X101582434Y-103662566D01*
X106703000Y-108783133D01*
X106703000Y-117973000D01*
X104790000Y-117973000D01*
X104790000Y-117465000D01*
X104703603Y-117030654D01*
X104457566Y-116662434D01*
X103893797Y-116098665D01*
X103798885Y-115621511D01*
X103474029Y-115135330D01*
X103159248Y-114925000D01*
X103474029Y-114714670D01*
X103798885Y-114228489D01*
X103912959Y-113655000D01*
X103798885Y-113081511D01*
X103474029Y-112595330D01*
X103159248Y-112385000D01*
X103474029Y-112174670D01*
X103503264Y-112130917D01*
X103822566Y-111917566D01*
X104068603Y-111549346D01*
X104155000Y-111115000D01*
X104068603Y-110680654D01*
X103822566Y-110312434D01*
X103503264Y-110099083D01*
X103474029Y-110055330D01*
X103145736Y-109835971D01*
X103461424Y-109617687D01*
X103760218Y-109170463D01*
X103671883Y-108948000D01*
X102758000Y-108948000D01*
X102758000Y-108968000D01*
X102012000Y-108968000D01*
X102012000Y-108948000D01*
X100218000Y-108948000D01*
X100218000Y-108968000D01*
X99472000Y-108968000D01*
X99472000Y-108948000D01*
X98505150Y-108948000D01*
X98346400Y-109106750D01*
X98346400Y-109564910D01*
X98443073Y-109798299D01*
X98621702Y-109976927D01*
X98777023Y-110041263D01*
X98755971Y-110055330D01*
X98431115Y-110541511D01*
X98336203Y-111018665D01*
X92692434Y-116662434D01*
X92446397Y-117030654D01*
X92410570Y-117210768D01*
X90620122Y-115420320D01*
X90620162Y-115374833D01*
X90478117Y-115031057D01*
X90215327Y-114767808D01*
X89871799Y-114625162D01*
X89499833Y-114624838D01*
X89156057Y-114766883D01*
X88892808Y-115029673D01*
X88768378Y-115329332D01*
X88601799Y-115260162D01*
X88229833Y-115259838D01*
X87886057Y-115401883D01*
X87622808Y-115664673D01*
X87480162Y-116008201D01*
X87479838Y-116380167D01*
X87621883Y-116723943D01*
X87884673Y-116987192D01*
X88228201Y-117129838D01*
X88275077Y-117129879D01*
X88925000Y-117779802D01*
X88925000Y-117973000D01*
X87988132Y-117973000D01*
X87312566Y-117297434D01*
X87128075Y-117174161D01*
X86944346Y-117051397D01*
X86510000Y-116965000D01*
X85224565Y-116965000D01*
X85345247Y-116790467D01*
X85262717Y-116568000D01*
X84343000Y-116568000D01*
X84343000Y-116588000D01*
X83597000Y-116588000D01*
X83597000Y-116568000D01*
X83577000Y-116568000D01*
X83577000Y-115822000D01*
X83597000Y-115822000D01*
X83597000Y-114028000D01*
X84343000Y-114028000D01*
X84343000Y-115822000D01*
X85262717Y-115822000D01*
X85345247Y-115599533D01*
X85019762Y-115128808D01*
X85193299Y-115056927D01*
X85371927Y-114878298D01*
X85468600Y-114644909D01*
X85468600Y-114186750D01*
X85309850Y-114028000D01*
X84343000Y-114028000D01*
X83597000Y-114028000D01*
X83577000Y-114028000D01*
X83577000Y-113282000D01*
X83597000Y-113282000D01*
X83597000Y-113262000D01*
X84343000Y-113262000D01*
X84343000Y-113282000D01*
X85309850Y-113282000D01*
X85468600Y-113123250D01*
X85468600Y-112665091D01*
X85405188Y-112512000D01*
X92225000Y-112512000D01*
X92274410Y-112501994D01*
X92316035Y-112473553D01*
X92343315Y-112431159D01*
X92352000Y-112385000D01*
X92352000Y-107585090D01*
X98346400Y-107585090D01*
X98346400Y-108043250D01*
X98505150Y-108202000D01*
X99472000Y-108202000D01*
X99472000Y-107235150D01*
X100218000Y-107235150D01*
X100218000Y-108202000D01*
X102012000Y-108202000D01*
X102012000Y-107282283D01*
X102758000Y-107282283D01*
X102758000Y-108202000D01*
X103671883Y-108202000D01*
X103760218Y-107979537D01*
X103461424Y-107532313D01*
X102980467Y-107199753D01*
X102758000Y-107282283D01*
X102012000Y-107282283D01*
X101789533Y-107199753D01*
X101318808Y-107525238D01*
X101246927Y-107351701D01*
X101068298Y-107173073D01*
X100834909Y-107076400D01*
X100376750Y-107076400D01*
X100218000Y-107235150D01*
X99472000Y-107235150D01*
X99313250Y-107076400D01*
X98855091Y-107076400D01*
X98621702Y-107173073D01*
X98443073Y-107351701D01*
X98346400Y-107585090D01*
X92352000Y-107585090D01*
X92352000Y-104550026D01*
X92485302Y-104683327D01*
X92718691Y-104780000D01*
X93011250Y-104780000D01*
X93170000Y-104621250D01*
X93170000Y-103820000D01*
X93820000Y-103820000D01*
X93820000Y-104621250D01*
X93978750Y-104780000D01*
X94271309Y-104780000D01*
X94504698Y-104683327D01*
X94683327Y-104504699D01*
X94780000Y-104271310D01*
X94780000Y-103978750D01*
X94621250Y-103820000D01*
X93820000Y-103820000D01*
X93170000Y-103820000D01*
X93102000Y-103820000D01*
X93102000Y-103170000D01*
X93170000Y-103170000D01*
X93170000Y-102368750D01*
X93820000Y-102368750D01*
X93820000Y-103170000D01*
X94621250Y-103170000D01*
X94780000Y-103011250D01*
X94780000Y-102718690D01*
X94683327Y-102485301D01*
X94504698Y-102306673D01*
X94271309Y-102210000D01*
X93978750Y-102210000D01*
X93820000Y-102368750D01*
X93170000Y-102368750D01*
X93011250Y-102210000D01*
X92718691Y-102210000D01*
X92485302Y-102306673D01*
X92352000Y-102439974D01*
X92352000Y-102121750D01*
X95806400Y-102121750D01*
X95806400Y-102579909D01*
X95903073Y-102813298D01*
X96081701Y-102991927D01*
X96315090Y-103088600D01*
X96773250Y-103088600D01*
X96932000Y-102929850D01*
X96932000Y-101963000D01*
X95965150Y-101963000D01*
X95806400Y-102121750D01*
X92352000Y-102121750D01*
X92352000Y-100193000D01*
X92796500Y-100193000D01*
X92796500Y-100509809D01*
X92893173Y-100743198D01*
X93071801Y-100921827D01*
X93305190Y-101018500D01*
X93622000Y-101018500D01*
X93780750Y-100859750D01*
X93780750Y-100034250D01*
X94479250Y-100034250D01*
X94479250Y-100859750D01*
X94638000Y-101018500D01*
X94954810Y-101018500D01*
X95188199Y-100921827D01*
X95366827Y-100743198D01*
X95426103Y-100600091D01*
X95806400Y-100600091D01*
X95806400Y-101058250D01*
X95965150Y-101217000D01*
X96932000Y-101217000D01*
X96932000Y-99423000D01*
X96012283Y-99423000D01*
X95929753Y-99645467D01*
X96255238Y-100116192D01*
X96081701Y-100188073D01*
X95903073Y-100366702D01*
X95806400Y-100600091D01*
X95426103Y-100600091D01*
X95463500Y-100509809D01*
X95463500Y-100193000D01*
X95304750Y-100034250D01*
X94479250Y-100034250D01*
X93780750Y-100034250D01*
X92955250Y-100034250D01*
X92796500Y-100193000D01*
X92352000Y-100193000D01*
X92352000Y-98860191D01*
X92796500Y-98860191D01*
X92796500Y-99177000D01*
X92955250Y-99335750D01*
X93780750Y-99335750D01*
X93780750Y-98510250D01*
X94479250Y-98510250D01*
X94479250Y-99335750D01*
X95304750Y-99335750D01*
X95463500Y-99177000D01*
X95463500Y-98860191D01*
X95366827Y-98626802D01*
X95194559Y-98454533D01*
X95929753Y-98454533D01*
X96012283Y-98677000D01*
X96932000Y-98677000D01*
X96932000Y-97763117D01*
X96709537Y-97674782D01*
X96262313Y-97973576D01*
X95929753Y-98454533D01*
X95194559Y-98454533D01*
X95188199Y-98448173D01*
X94954810Y-98351500D01*
X94638000Y-98351500D01*
X94479250Y-98510250D01*
X93780750Y-98510250D01*
X93622000Y-98351500D01*
X93305190Y-98351500D01*
X93071801Y-98448173D01*
X92893173Y-98626802D01*
X92796500Y-98860191D01*
X92352000Y-98860191D01*
X92352000Y-96689114D01*
X92583673Y-96921192D01*
X92927201Y-97063838D01*
X93299167Y-97064162D01*
X93642943Y-96922117D01*
X93906192Y-96659327D01*
X94048838Y-96315799D01*
X94049162Y-95943833D01*
X94046929Y-95938428D01*
X94394086Y-95938731D01*
X94884380Y-95736146D01*
X95259827Y-95361353D01*
X95463268Y-94871413D01*
X95463731Y-94340914D01*
X95267811Y-93866750D01*
X95806400Y-93866750D01*
X95806400Y-94324909D01*
X95903073Y-94558298D01*
X96081701Y-94736927D01*
X96315090Y-94833600D01*
X96773250Y-94833600D01*
X96932000Y-94674850D01*
X96932000Y-93708000D01*
X95965150Y-93708000D01*
X95806400Y-93866750D01*
X95267811Y-93866750D01*
X95261146Y-93850620D01*
X94886353Y-93475173D01*
X94396413Y-93271732D01*
X94380000Y-93271718D01*
X94380000Y-92345091D01*
X95806400Y-92345091D01*
X95806400Y-92803250D01*
X95965150Y-92962000D01*
X96932000Y-92962000D01*
X96932000Y-91168000D01*
X96012283Y-91168000D01*
X95929753Y-91390467D01*
X96255238Y-91861192D01*
X96081701Y-91933073D01*
X95903073Y-92111702D01*
X95806400Y-92345091D01*
X94380000Y-92345091D01*
X94380000Y-92048222D01*
X94380317Y-92048162D01*
X94596441Y-91909090D01*
X94741431Y-91696890D01*
X94792440Y-91445000D01*
X94792440Y-90199533D01*
X95929753Y-90199533D01*
X96012283Y-90422000D01*
X96932000Y-90422000D01*
X96932000Y-89508117D01*
X96709537Y-89419782D01*
X96262313Y-89718576D01*
X95929753Y-90199533D01*
X94792440Y-90199533D01*
X94792440Y-90145000D01*
X94748162Y-89909683D01*
X94609090Y-89693559D01*
X94396890Y-89548569D01*
X94380000Y-89545149D01*
X94380000Y-85715005D01*
X94380001Y-85715000D01*
X94312633Y-85376325D01*
X94262567Y-85301396D01*
X94120790Y-85089210D01*
X94120787Y-85089208D01*
X93373330Y-84341750D01*
X95400000Y-84341750D01*
X95400000Y-85206310D01*
X95496673Y-85439699D01*
X95675302Y-85618327D01*
X95908691Y-85715000D01*
X96773250Y-85715000D01*
X96932000Y-85556250D01*
X96932000Y-84183000D01*
X97678000Y-84183000D01*
X97678000Y-85556250D01*
X97836750Y-85715000D01*
X98701309Y-85715000D01*
X98934698Y-85618327D01*
X99113327Y-85439699D01*
X99210000Y-85206310D01*
X99210000Y-84341750D01*
X99051250Y-84183000D01*
X97678000Y-84183000D01*
X96932000Y-84183000D01*
X95558750Y-84183000D01*
X95400000Y-84341750D01*
X93373330Y-84341750D01*
X92850790Y-83819210D01*
X92690938Y-83712401D01*
X92563675Y-83627367D01*
X92507484Y-83616190D01*
X92361656Y-83587182D01*
X92352000Y-83572731D01*
X92352000Y-83430417D01*
X92422441Y-83385090D01*
X92567431Y-83172890D01*
X92618440Y-82921000D01*
X92618440Y-80889000D01*
X92584759Y-80710000D01*
X94002533Y-80710000D01*
X93972808Y-80739673D01*
X93972808Y-80739673D01*
G37*
X93972808Y-80739673D02*
X93830162Y-81083201D01*
X93829838Y-81455167D01*
X93971883Y-81798943D01*
X94234673Y-82062192D01*
X94578201Y-82204838D01*
X94950167Y-82205162D01*
X95293943Y-82063117D01*
X95327118Y-82030000D01*
X95646975Y-82030000D01*
X95496673Y-82180301D01*
X95400000Y-82413690D01*
X95400000Y-83278250D01*
X95558750Y-83437000D01*
X96932000Y-83437000D01*
X96932000Y-83417000D01*
X97678000Y-83417000D01*
X97678000Y-83437000D01*
X99051250Y-83437000D01*
X99210000Y-83278250D01*
X99210000Y-82413690D01*
X99113327Y-82180301D01*
X98963025Y-82030000D01*
X101704413Y-82030000D01*
X101307314Y-82194078D01*
X100770961Y-82729495D01*
X100480332Y-83429410D01*
X100479670Y-84187265D01*
X100769078Y-84887686D01*
X101304495Y-85424039D01*
X102004410Y-85714668D01*
X102762265Y-85715330D01*
X103462686Y-85425922D01*
X103999039Y-84890505D01*
X104289668Y-84190590D01*
X104290330Y-83432735D01*
X104000922Y-82732314D01*
X103465505Y-82195961D01*
X103065825Y-82030000D01*
X106703000Y-82030000D01*
X106703000Y-84871868D01*
X103819868Y-87755000D01*
X101115000Y-87755000D01*
X100680654Y-87841397D01*
X100505137Y-87958674D01*
X100312434Y-88087434D01*
X99042434Y-89357434D01*
X98829083Y-89676736D01*
X98785330Y-89705971D01*
X98565971Y-90034264D01*
X98347687Y-89718576D01*
X97900463Y-89419782D01*
X97678000Y-89508117D01*
X97678000Y-90422000D01*
X97698000Y-90422000D01*
X97698000Y-91168000D01*
X97678000Y-91168000D01*
X97678000Y-92962000D01*
X97698000Y-92962000D01*
X97698000Y-93708000D01*
X97678000Y-93708000D01*
X97678000Y-94674850D01*
X97836750Y-94833600D01*
X98294910Y-94833600D01*
X98528299Y-94736927D01*
X98706927Y-94558298D01*
X98771263Y-94402977D01*
X98785330Y-94424029D01*
X99271511Y-94748885D01*
X99811516Y-94856299D01*
X100975569Y-95942748D01*
X101147501Y-96049247D01*
X101266860Y-96129000D01*
X101070807Y-96259999D01*
X100947434Y-96342434D01*
X99748665Y-97541203D01*
X99271511Y-97636115D01*
X98785330Y-97960971D01*
X98565971Y-98289264D01*
X98347687Y-97973576D01*
X97900463Y-97674782D01*
X97678000Y-97763117D01*
X97678000Y-98677000D01*
X97698000Y-98677000D01*
X97698000Y-99423000D01*
X97678000Y-99423000D01*
X97678000Y-101217000D01*
X97698000Y-101217000D01*
X97698000Y-101963000D01*
X97678000Y-101963000D01*
X97678000Y-102929850D01*
X97836750Y-103088600D01*
X98294910Y-103088600D01*
X98528299Y-102991927D01*
X98706927Y-102813298D01*
X98771263Y-102657977D01*
X98785330Y-102679029D01*
X99271511Y-103003885D01*
X99845000Y-103117959D01*
X100418489Y-103003885D01*
X100904670Y-102679029D01*
X101115000Y-102364248D01*
X101250000Y-102566290D01*
X101250000Y-102860000D01*
X101336397Y-103294346D01*
X101582434Y-103662566D01*
X106703000Y-108783133D01*
X106703000Y-117973000D01*
X104790000Y-117973000D01*
X104790000Y-117465000D01*
X104703603Y-117030654D01*
X104457566Y-116662434D01*
X103893797Y-116098665D01*
X103798885Y-115621511D01*
X103474029Y-115135330D01*
X103159248Y-114925000D01*
X103474029Y-114714670D01*
X103798885Y-114228489D01*
X103912959Y-113655000D01*
X103798885Y-113081511D01*
X103474029Y-112595330D01*
X103159248Y-112385000D01*
X103474029Y-112174670D01*
X103503264Y-112130917D01*
X103822566Y-111917566D01*
X104068603Y-111549346D01*
X104155000Y-111115000D01*
X104068603Y-110680654D01*
X103822566Y-110312434D01*
X103503264Y-110099083D01*
X103474029Y-110055330D01*
X103145736Y-109835971D01*
X103461424Y-109617687D01*
X103760218Y-109170463D01*
X103671883Y-108948000D01*
X102758000Y-108948000D01*
X102758000Y-108968000D01*
X102012000Y-108968000D01*
X102012000Y-108948000D01*
X100218000Y-108948000D01*
X100218000Y-108968000D01*
X99472000Y-108968000D01*
X99472000Y-108948000D01*
X98505150Y-108948000D01*
X98346400Y-109106750D01*
X98346400Y-109564910D01*
X98443073Y-109798299D01*
X98621702Y-109976927D01*
X98777023Y-110041263D01*
X98755971Y-110055330D01*
X98431115Y-110541511D01*
X98336203Y-111018665D01*
X92692434Y-116662434D01*
X92446397Y-117030654D01*
X92410570Y-117210768D01*
X90620122Y-115420320D01*
X90620162Y-115374833D01*
X90478117Y-115031057D01*
X90215327Y-114767808D01*
X89871799Y-114625162D01*
X89499833Y-114624838D01*
X89156057Y-114766883D01*
X88892808Y-115029673D01*
X88768378Y-115329332D01*
X88601799Y-115260162D01*
X88229833Y-115259838D01*
X87886057Y-115401883D01*
X87622808Y-115664673D01*
X87480162Y-116008201D01*
X87479838Y-116380167D01*
X87621883Y-116723943D01*
X87884673Y-116987192D01*
X88228201Y-117129838D01*
X88275077Y-117129879D01*
X88925000Y-117779802D01*
X88925000Y-117973000D01*
X87988132Y-117973000D01*
X87312566Y-117297434D01*
X87128075Y-117174161D01*
X86944346Y-117051397D01*
X86510000Y-116965000D01*
X85224565Y-116965000D01*
X85345247Y-116790467D01*
X85262717Y-116568000D01*
X84343000Y-116568000D01*
X84343000Y-116588000D01*
X83597000Y-116588000D01*
X83597000Y-116568000D01*
X83577000Y-116568000D01*
X83577000Y-115822000D01*
X83597000Y-115822000D01*
X83597000Y-114028000D01*
X84343000Y-114028000D01*
X84343000Y-115822000D01*
X85262717Y-115822000D01*
X85345247Y-115599533D01*
X85019762Y-115128808D01*
X85193299Y-115056927D01*
X85371927Y-114878298D01*
X85468600Y-114644909D01*
X85468600Y-114186750D01*
X85309850Y-114028000D01*
X84343000Y-114028000D01*
X83597000Y-114028000D01*
X83577000Y-114028000D01*
X83577000Y-113282000D01*
X83597000Y-113282000D01*
X83597000Y-113262000D01*
X84343000Y-113262000D01*
X84343000Y-113282000D01*
X85309850Y-113282000D01*
X85468600Y-113123250D01*
X85468600Y-112665091D01*
X85405188Y-112512000D01*
X92225000Y-112512000D01*
X92274410Y-112501994D01*
X92316035Y-112473553D01*
X92343315Y-112431159D01*
X92352000Y-112385000D01*
X92352000Y-107585090D01*
X98346400Y-107585090D01*
X98346400Y-108043250D01*
X98505150Y-108202000D01*
X99472000Y-108202000D01*
X99472000Y-107235150D01*
X100218000Y-107235150D01*
X100218000Y-108202000D01*
X102012000Y-108202000D01*
X102012000Y-107282283D01*
X102758000Y-107282283D01*
X102758000Y-108202000D01*
X103671883Y-108202000D01*
X103760218Y-107979537D01*
X103461424Y-107532313D01*
X102980467Y-107199753D01*
X102758000Y-107282283D01*
X102012000Y-107282283D01*
X101789533Y-107199753D01*
X101318808Y-107525238D01*
X101246927Y-107351701D01*
X101068298Y-107173073D01*
X100834909Y-107076400D01*
X100376750Y-107076400D01*
X100218000Y-107235150D01*
X99472000Y-107235150D01*
X99313250Y-107076400D01*
X98855091Y-107076400D01*
X98621702Y-107173073D01*
X98443073Y-107351701D01*
X98346400Y-107585090D01*
X92352000Y-107585090D01*
X92352000Y-104550026D01*
X92485302Y-104683327D01*
X92718691Y-104780000D01*
X93011250Y-104780000D01*
X93170000Y-104621250D01*
X93170000Y-103820000D01*
X93820000Y-103820000D01*
X93820000Y-104621250D01*
X93978750Y-104780000D01*
X94271309Y-104780000D01*
X94504698Y-104683327D01*
X94683327Y-104504699D01*
X94780000Y-104271310D01*
X94780000Y-103978750D01*
X94621250Y-103820000D01*
X93820000Y-103820000D01*
X93170000Y-103820000D01*
X93102000Y-103820000D01*
X93102000Y-103170000D01*
X93170000Y-103170000D01*
X93170000Y-102368750D01*
X93820000Y-102368750D01*
X93820000Y-103170000D01*
X94621250Y-103170000D01*
X94780000Y-103011250D01*
X94780000Y-102718690D01*
X94683327Y-102485301D01*
X94504698Y-102306673D01*
X94271309Y-102210000D01*
X93978750Y-102210000D01*
X93820000Y-102368750D01*
X93170000Y-102368750D01*
X93011250Y-102210000D01*
X92718691Y-102210000D01*
X92485302Y-102306673D01*
X92352000Y-102439974D01*
X92352000Y-102121750D01*
X95806400Y-102121750D01*
X95806400Y-102579909D01*
X95903073Y-102813298D01*
X96081701Y-102991927D01*
X96315090Y-103088600D01*
X96773250Y-103088600D01*
X96932000Y-102929850D01*
X96932000Y-101963000D01*
X95965150Y-101963000D01*
X95806400Y-102121750D01*
X92352000Y-102121750D01*
X92352000Y-100193000D01*
X92796500Y-100193000D01*
X92796500Y-100509809D01*
X92893173Y-100743198D01*
X93071801Y-100921827D01*
X93305190Y-101018500D01*
X93622000Y-101018500D01*
X93780750Y-100859750D01*
X93780750Y-100034250D01*
X94479250Y-100034250D01*
X94479250Y-100859750D01*
X94638000Y-101018500D01*
X94954810Y-101018500D01*
X95188199Y-100921827D01*
X95366827Y-100743198D01*
X95426103Y-100600091D01*
X95806400Y-100600091D01*
X95806400Y-101058250D01*
X95965150Y-101217000D01*
X96932000Y-101217000D01*
X96932000Y-99423000D01*
X96012283Y-99423000D01*
X95929753Y-99645467D01*
X96255238Y-100116192D01*
X96081701Y-100188073D01*
X95903073Y-100366702D01*
X95806400Y-100600091D01*
X95426103Y-100600091D01*
X95463500Y-100509809D01*
X95463500Y-100193000D01*
X95304750Y-100034250D01*
X94479250Y-100034250D01*
X93780750Y-100034250D01*
X92955250Y-100034250D01*
X92796500Y-100193000D01*
X92352000Y-100193000D01*
X92352000Y-98860191D01*
X92796500Y-98860191D01*
X92796500Y-99177000D01*
X92955250Y-99335750D01*
X93780750Y-99335750D01*
X93780750Y-98510250D01*
X94479250Y-98510250D01*
X94479250Y-99335750D01*
X95304750Y-99335750D01*
X95463500Y-99177000D01*
X95463500Y-98860191D01*
X95366827Y-98626802D01*
X95194559Y-98454533D01*
X95929753Y-98454533D01*
X96012283Y-98677000D01*
X96932000Y-98677000D01*
X96932000Y-97763117D01*
X96709537Y-97674782D01*
X96262313Y-97973576D01*
X95929753Y-98454533D01*
X95194559Y-98454533D01*
X95188199Y-98448173D01*
X94954810Y-98351500D01*
X94638000Y-98351500D01*
X94479250Y-98510250D01*
X93780750Y-98510250D01*
X93622000Y-98351500D01*
X93305190Y-98351500D01*
X93071801Y-98448173D01*
X92893173Y-98626802D01*
X92796500Y-98860191D01*
X92352000Y-98860191D01*
X92352000Y-96689114D01*
X92583673Y-96921192D01*
X92927201Y-97063838D01*
X93299167Y-97064162D01*
X93642943Y-96922117D01*
X93906192Y-96659327D01*
X94048838Y-96315799D01*
X94049162Y-95943833D01*
X94046929Y-95938428D01*
X94394086Y-95938731D01*
X94884380Y-95736146D01*
X95259827Y-95361353D01*
X95463268Y-94871413D01*
X95463731Y-94340914D01*
X95267811Y-93866750D01*
X95806400Y-93866750D01*
X95806400Y-94324909D01*
X95903073Y-94558298D01*
X96081701Y-94736927D01*
X96315090Y-94833600D01*
X96773250Y-94833600D01*
X96932000Y-94674850D01*
X96932000Y-93708000D01*
X95965150Y-93708000D01*
X95806400Y-93866750D01*
X95267811Y-93866750D01*
X95261146Y-93850620D01*
X94886353Y-93475173D01*
X94396413Y-93271732D01*
X94380000Y-93271718D01*
X94380000Y-92345091D01*
X95806400Y-92345091D01*
X95806400Y-92803250D01*
X95965150Y-92962000D01*
X96932000Y-92962000D01*
X96932000Y-91168000D01*
X96012283Y-91168000D01*
X95929753Y-91390467D01*
X96255238Y-91861192D01*
X96081701Y-91933073D01*
X95903073Y-92111702D01*
X95806400Y-92345091D01*
X94380000Y-92345091D01*
X94380000Y-92048222D01*
X94380317Y-92048162D01*
X94596441Y-91909090D01*
X94741431Y-91696890D01*
X94792440Y-91445000D01*
X94792440Y-90199533D01*
X95929753Y-90199533D01*
X96012283Y-90422000D01*
X96932000Y-90422000D01*
X96932000Y-89508117D01*
X96709537Y-89419782D01*
X96262313Y-89718576D01*
X95929753Y-90199533D01*
X94792440Y-90199533D01*
X94792440Y-90145000D01*
X94748162Y-89909683D01*
X94609090Y-89693559D01*
X94396890Y-89548569D01*
X94380000Y-89545149D01*
X94380000Y-85715005D01*
X94380001Y-85715000D01*
X94312633Y-85376325D01*
X94262567Y-85301396D01*
X94120790Y-85089210D01*
X94120787Y-85089208D01*
X93373330Y-84341750D01*
X95400000Y-84341750D01*
X95400000Y-85206310D01*
X95496673Y-85439699D01*
X95675302Y-85618327D01*
X95908691Y-85715000D01*
X96773250Y-85715000D01*
X96932000Y-85556250D01*
X96932000Y-84183000D01*
X97678000Y-84183000D01*
X97678000Y-85556250D01*
X97836750Y-85715000D01*
X98701309Y-85715000D01*
X98934698Y-85618327D01*
X99113327Y-85439699D01*
X99210000Y-85206310D01*
X99210000Y-84341750D01*
X99051250Y-84183000D01*
X97678000Y-84183000D01*
X96932000Y-84183000D01*
X95558750Y-84183000D01*
X95400000Y-84341750D01*
X93373330Y-84341750D01*
X92850790Y-83819210D01*
X92690938Y-83712401D01*
X92563675Y-83627367D01*
X92507484Y-83616190D01*
X92361656Y-83587182D01*
X92352000Y-83572731D01*
X92352000Y-83430417D01*
X92422441Y-83385090D01*
X92567431Y-83172890D01*
X92618440Y-82921000D01*
X92618440Y-80889000D01*
X92584759Y-80710000D01*
X94002533Y-80710000D01*
X93972808Y-80739673D01*
G36*
X87280000Y-126998000D02*
X87280000Y-127498000D01*
X88288000Y-127498000D01*
X88288000Y-127478000D01*
X88542000Y-127478000D01*
X88542000Y-127498000D01*
X89550000Y-127498000D01*
X89550000Y-126998000D01*
X89474774Y-126761354D01*
X89820000Y-127106579D01*
X89820000Y-128157032D01*
X89906397Y-128591378D01*
X90152434Y-128959598D01*
X90520654Y-129205635D01*
X90944784Y-129290000D01*
X85885216Y-129290000D01*
X86309346Y-129205635D01*
X86677566Y-128959598D01*
X86923603Y-128591378D01*
X87010000Y-128157032D01*
X87010000Y-127752000D01*
X87280000Y-127752000D01*
X87280000Y-128252000D01*
X87414998Y-128676678D01*
X87702237Y-129017368D01*
X88113126Y-129219119D01*
X88288000Y-129092954D01*
X88288000Y-127752000D01*
X88542000Y-127752000D01*
X88542000Y-129092954D01*
X88716874Y-129219119D01*
X89127763Y-129017368D01*
X89415002Y-128676678D01*
X89550000Y-128252000D01*
X89550000Y-127752000D01*
X88542000Y-127752000D01*
X88288000Y-127752000D01*
X87280000Y-127752000D01*
X87010000Y-127752000D01*
X87010000Y-127092968D01*
X86923603Y-126658622D01*
X86887774Y-126605000D01*
X87404928Y-126605000D01*
X87280000Y-126998000D01*
X87280000Y-126998000D01*
G37*
X87280000Y-126998000D02*
X87280000Y-127498000D01*
X88288000Y-127498000D01*
X88288000Y-127478000D01*
X88542000Y-127478000D01*
X88542000Y-127498000D01*
X89550000Y-127498000D01*
X89550000Y-126998000D01*
X89474774Y-126761354D01*
X89820000Y-127106579D01*
X89820000Y-128157032D01*
X89906397Y-128591378D01*
X90152434Y-128959598D01*
X90520654Y-129205635D01*
X90944784Y-129290000D01*
X85885216Y-129290000D01*
X86309346Y-129205635D01*
X86677566Y-128959598D01*
X86923603Y-128591378D01*
X87010000Y-128157032D01*
X87010000Y-127752000D01*
X87280000Y-127752000D01*
X87280000Y-128252000D01*
X87414998Y-128676678D01*
X87702237Y-129017368D01*
X88113126Y-129219119D01*
X88288000Y-129092954D01*
X88288000Y-127752000D01*
X88542000Y-127752000D01*
X88542000Y-129092954D01*
X88716874Y-129219119D01*
X89127763Y-129017368D01*
X89415002Y-128676678D01*
X89550000Y-128252000D01*
X89550000Y-127752000D01*
X88542000Y-127752000D01*
X88288000Y-127752000D01*
X87280000Y-127752000D01*
X87010000Y-127752000D01*
X87010000Y-127092968D01*
X86923603Y-126658622D01*
X86887774Y-126605000D01*
X87404928Y-126605000D01*
X87280000Y-126998000D01*
G36*
X70732599Y-124352401D02*
X72002599Y-125622401D01*
X72249160Y-125787148D01*
X72540000Y-125845000D01*
X83804367Y-125845000D01*
X83711888Y-126067714D01*
X83636874Y-126030881D01*
X83462000Y-126157046D01*
X83462000Y-127498000D01*
X84470000Y-127498000D01*
X84470000Y-127289883D01*
X84740000Y-127290118D01*
X84740000Y-128157032D01*
X84826397Y-128591378D01*
X85072434Y-128959598D01*
X85440654Y-129205635D01*
X85864784Y-129290000D01*
X80805216Y-129290000D01*
X81229346Y-129205635D01*
X81597566Y-128959598D01*
X81843603Y-128591378D01*
X81930000Y-128157032D01*
X81930000Y-127752000D01*
X82200000Y-127752000D01*
X82200000Y-128252000D01*
X82334998Y-128676678D01*
X82622237Y-129017368D01*
X83033126Y-129219119D01*
X83208000Y-129092954D01*
X83208000Y-127752000D01*
X83462000Y-127752000D01*
X83462000Y-129092954D01*
X83636874Y-129219119D01*
X84047763Y-129017368D01*
X84335002Y-128676678D01*
X84470000Y-128252000D01*
X84470000Y-127752000D01*
X83462000Y-127752000D01*
X83208000Y-127752000D01*
X82200000Y-127752000D01*
X81930000Y-127752000D01*
X81930000Y-127092968D01*
X81911110Y-126998000D01*
X82200000Y-126998000D01*
X82200000Y-127498000D01*
X83208000Y-127498000D01*
X83208000Y-126157046D01*
X83033126Y-126030881D01*
X82622237Y-126232632D01*
X82334998Y-126573322D01*
X82200000Y-126998000D01*
X81911110Y-126998000D01*
X81843603Y-126658622D01*
X81597566Y-126290402D01*
X81229346Y-126044365D01*
X80795000Y-125957968D01*
X80360654Y-126044365D01*
X79992434Y-126290402D01*
X79746397Y-126658622D01*
X79660000Y-127092968D01*
X79660000Y-128157032D01*
X79746397Y-128591378D01*
X79992434Y-128959598D01*
X80360654Y-129205635D01*
X80784784Y-129290000D01*
X78265216Y-129290000D01*
X78689346Y-129205635D01*
X79057566Y-128959598D01*
X79303603Y-128591378D01*
X79390000Y-128157032D01*
X79390000Y-127092968D01*
X79303603Y-126658622D01*
X79057566Y-126290402D01*
X78689346Y-126044365D01*
X78255000Y-125957968D01*
X77820654Y-126044365D01*
X77452434Y-126290402D01*
X77206397Y-126658622D01*
X77120000Y-127092968D01*
X77120000Y-128157032D01*
X77206397Y-128591378D01*
X77452434Y-128959598D01*
X77820654Y-129205635D01*
X78244784Y-129290000D01*
X75725216Y-129290000D01*
X76149346Y-129205635D01*
X76517566Y-128959598D01*
X76763603Y-128591378D01*
X76850000Y-128157032D01*
X76850000Y-127092968D01*
X76763603Y-126658622D01*
X76517566Y-126290402D01*
X76149346Y-126044365D01*
X75715000Y-125957968D01*
X75280654Y-126044365D01*
X74912434Y-126290402D01*
X74666397Y-126658622D01*
X74580000Y-127092968D01*
X74580000Y-128157032D01*
X74666397Y-128591378D01*
X74912434Y-128959598D01*
X75280654Y-129205635D01*
X75704784Y-129290000D01*
X73185216Y-129290000D01*
X73609346Y-129205635D01*
X73977566Y-128959598D01*
X74223603Y-128591378D01*
X74310000Y-128157032D01*
X74310000Y-127092968D01*
X74223603Y-126658622D01*
X73977566Y-126290402D01*
X73609346Y-126044365D01*
X73175000Y-125957968D01*
X72740654Y-126044365D01*
X72372434Y-126290402D01*
X72126397Y-126658622D01*
X72040000Y-127092968D01*
X72040000Y-128157032D01*
X72126397Y-128591378D01*
X72372434Y-128959598D01*
X72740654Y-129205635D01*
X73164784Y-129290000D01*
X70710000Y-129290000D01*
X70710000Y-124318579D01*
X70732599Y-124352401D01*
X70732599Y-124352401D01*
G37*
X70732599Y-124352401D02*
X72002599Y-125622401D01*
X72249160Y-125787148D01*
X72540000Y-125845000D01*
X83804367Y-125845000D01*
X83711888Y-126067714D01*
X83636874Y-126030881D01*
X83462000Y-126157046D01*
X83462000Y-127498000D01*
X84470000Y-127498000D01*
X84470000Y-127289883D01*
X84740000Y-127290118D01*
X84740000Y-128157032D01*
X84826397Y-128591378D01*
X85072434Y-128959598D01*
X85440654Y-129205635D01*
X85864784Y-129290000D01*
X80805216Y-129290000D01*
X81229346Y-129205635D01*
X81597566Y-128959598D01*
X81843603Y-128591378D01*
X81930000Y-128157032D01*
X81930000Y-127752000D01*
X82200000Y-127752000D01*
X82200000Y-128252000D01*
X82334998Y-128676678D01*
X82622237Y-129017368D01*
X83033126Y-129219119D01*
X83208000Y-129092954D01*
X83208000Y-127752000D01*
X83462000Y-127752000D01*
X83462000Y-129092954D01*
X83636874Y-129219119D01*
X84047763Y-129017368D01*
X84335002Y-128676678D01*
X84470000Y-128252000D01*
X84470000Y-127752000D01*
X83462000Y-127752000D01*
X83208000Y-127752000D01*
X82200000Y-127752000D01*
X81930000Y-127752000D01*
X81930000Y-127092968D01*
X81911110Y-126998000D01*
X82200000Y-126998000D01*
X82200000Y-127498000D01*
X83208000Y-127498000D01*
X83208000Y-126157046D01*
X83033126Y-126030881D01*
X82622237Y-126232632D01*
X82334998Y-126573322D01*
X82200000Y-126998000D01*
X81911110Y-126998000D01*
X81843603Y-126658622D01*
X81597566Y-126290402D01*
X81229346Y-126044365D01*
X80795000Y-125957968D01*
X80360654Y-126044365D01*
X79992434Y-126290402D01*
X79746397Y-126658622D01*
X79660000Y-127092968D01*
X79660000Y-128157032D01*
X79746397Y-128591378D01*
X79992434Y-128959598D01*
X80360654Y-129205635D01*
X80784784Y-129290000D01*
X78265216Y-129290000D01*
X78689346Y-129205635D01*
X79057566Y-128959598D01*
X79303603Y-128591378D01*
X79390000Y-128157032D01*
X79390000Y-127092968D01*
X79303603Y-126658622D01*
X79057566Y-126290402D01*
X78689346Y-126044365D01*
X78255000Y-125957968D01*
X77820654Y-126044365D01*
X77452434Y-126290402D01*
X77206397Y-126658622D01*
X77120000Y-127092968D01*
X77120000Y-128157032D01*
X77206397Y-128591378D01*
X77452434Y-128959598D01*
X77820654Y-129205635D01*
X78244784Y-129290000D01*
X75725216Y-129290000D01*
X76149346Y-129205635D01*
X76517566Y-128959598D01*
X76763603Y-128591378D01*
X76850000Y-128157032D01*
X76850000Y-127092968D01*
X76763603Y-126658622D01*
X76517566Y-126290402D01*
X76149346Y-126044365D01*
X75715000Y-125957968D01*
X75280654Y-126044365D01*
X74912434Y-126290402D01*
X74666397Y-126658622D01*
X74580000Y-127092968D01*
X74580000Y-128157032D01*
X74666397Y-128591378D01*
X74912434Y-128959598D01*
X75280654Y-129205635D01*
X75704784Y-129290000D01*
X73185216Y-129290000D01*
X73609346Y-129205635D01*
X73977566Y-128959598D01*
X74223603Y-128591378D01*
X74310000Y-128157032D01*
X74310000Y-127092968D01*
X74223603Y-126658622D01*
X73977566Y-126290402D01*
X73609346Y-126044365D01*
X73175000Y-125957968D01*
X72740654Y-126044365D01*
X72372434Y-126290402D01*
X72126397Y-126658622D01*
X72040000Y-127092968D01*
X72040000Y-128157032D01*
X72126397Y-128591378D01*
X72372434Y-128959598D01*
X72740654Y-129205635D01*
X73164784Y-129290000D01*
X70710000Y-129290000D01*
X70710000Y-124318579D01*
X70732599Y-124352401D01*
G36*
X81439210Y-85724210D02*
X81439208Y-85724213D01*
X80169210Y-86994210D01*
X79977367Y-87281325D01*
X79977367Y-87281326D01*
X79909999Y-87620000D01*
X79910000Y-87620005D01*
X79910000Y-88804186D01*
X79833033Y-88881019D01*
X79659818Y-89298168D01*
X79659503Y-89659737D01*
X79402740Y-89659513D01*
X79371602Y-89219565D01*
X79260532Y-88951418D01*
X79045381Y-88914224D01*
X78434605Y-89525000D01*
X78448748Y-89539143D01*
X78269143Y-89718748D01*
X78255000Y-89704605D01*
X77644224Y-90315381D01*
X77681418Y-90530532D01*
X78109880Y-90673491D01*
X78389743Y-90653683D01*
X78389424Y-91019850D01*
X78561911Y-91437301D01*
X78881019Y-91756967D01*
X79298168Y-91930182D01*
X79749850Y-91930576D01*
X80167301Y-91758089D01*
X80486967Y-91438981D01*
X80660182Y-91021832D01*
X80660497Y-90660263D01*
X81019850Y-90660576D01*
X81437301Y-90488089D01*
X81756967Y-90168981D01*
X81930182Y-89751832D01*
X81930576Y-89300150D01*
X81758089Y-88882699D01*
X81680000Y-88804473D01*
X81680000Y-87986580D01*
X82690787Y-86975792D01*
X82690790Y-86975790D01*
X84971579Y-84695000D01*
X85454069Y-84695000D01*
X85377488Y-85080000D01*
X85483828Y-85614609D01*
X85786660Y-86067828D01*
X86208959Y-86350000D01*
X85786660Y-86632172D01*
X85483828Y-87085391D01*
X85377488Y-87620000D01*
X85483828Y-88154609D01*
X85530153Y-88223939D01*
X85337599Y-88352599D01*
X85100320Y-88589878D01*
X85054833Y-88589838D01*
X84711057Y-88731883D01*
X84447808Y-88994673D01*
X84305162Y-89338201D01*
X84304838Y-89710167D01*
X84446883Y-90053943D01*
X84709673Y-90317192D01*
X85053201Y-90459838D01*
X85425167Y-90460162D01*
X85494889Y-90431353D01*
X85454230Y-90503070D01*
X85469190Y-90577277D01*
X85730820Y-91058026D01*
X86156509Y-91402059D01*
X86221893Y-91421358D01*
X85786660Y-91712172D01*
X85483828Y-92165391D01*
X85377488Y-92700000D01*
X85483828Y-93234609D01*
X85786660Y-93687828D01*
X86208959Y-93970000D01*
X85786660Y-94252172D01*
X85483828Y-94705391D01*
X85377488Y-95240000D01*
X85483828Y-95774609D01*
X85786660Y-96227828D01*
X86208959Y-96510000D01*
X85786660Y-96792172D01*
X85483828Y-97245391D01*
X85377488Y-97780000D01*
X85483828Y-98314609D01*
X85786660Y-98767828D01*
X86208959Y-99050000D01*
X85786660Y-99332172D01*
X85483828Y-99785391D01*
X85377488Y-100320000D01*
X85483828Y-100854609D01*
X85786660Y-101307828D01*
X86208959Y-101590000D01*
X85786660Y-101872172D01*
X85483828Y-102325391D01*
X85377488Y-102860000D01*
X85483828Y-103394609D01*
X85786660Y-103847828D01*
X86208959Y-104130000D01*
X85786660Y-104412172D01*
X85483828Y-104865391D01*
X85377488Y-105400000D01*
X85483828Y-105934609D01*
X85786660Y-106387828D01*
X86208959Y-106670000D01*
X85786660Y-106952172D01*
X85483828Y-107405391D01*
X85377488Y-107940000D01*
X85483828Y-108474609D01*
X85786660Y-108927828D01*
X86208312Y-109209567D01*
X85800633Y-109481970D01*
X85734090Y-109378559D01*
X85521890Y-109233569D01*
X85270000Y-109182560D01*
X84570000Y-109182560D01*
X84334683Y-109226838D01*
X84118559Y-109365910D01*
X83973569Y-109578110D01*
X83966809Y-109611490D01*
X83908327Y-109470301D01*
X83729698Y-109291673D01*
X83496309Y-109195000D01*
X83305750Y-109195000D01*
X83147000Y-109353750D01*
X83147000Y-110353000D01*
X83167000Y-110353000D01*
X83167000Y-110607000D01*
X83147000Y-110607000D01*
X83147000Y-110627000D01*
X82893000Y-110627000D01*
X82893000Y-110607000D01*
X82193750Y-110607000D01*
X82035000Y-110765750D01*
X82035000Y-111256310D01*
X82083335Y-111373000D01*
X78848132Y-111373000D01*
X78422566Y-110947434D01*
X78340878Y-110892852D01*
X78054346Y-110701397D01*
X77620000Y-110615000D01*
X75715000Y-110615000D01*
X75280654Y-110701397D01*
X74994122Y-110892852D01*
X74912434Y-110947434D01*
X73642434Y-112217434D01*
X73396397Y-112585654D01*
X73310000Y-113020000D01*
X73310000Y-116830000D01*
X73396397Y-117264346D01*
X73606994Y-117579526D01*
X73642434Y-117632566D01*
X74580000Y-118570132D01*
X74580000Y-120537032D01*
X74666397Y-120971378D01*
X74912434Y-121339598D01*
X75280654Y-121585635D01*
X75715000Y-121672032D01*
X76149346Y-121585635D01*
X76517566Y-121339598D01*
X76763603Y-120971378D01*
X76850000Y-120537032D01*
X76850000Y-119127000D01*
X77188817Y-119127000D01*
X77120000Y-119472968D01*
X77120000Y-120537032D01*
X77206397Y-120971378D01*
X77452434Y-121339598D01*
X77820654Y-121585635D01*
X78255000Y-121672032D01*
X78689346Y-121585635D01*
X79057566Y-121339598D01*
X79303603Y-120971378D01*
X79390000Y-120537032D01*
X79390000Y-119472968D01*
X79342665Y-119235000D01*
X79707335Y-119235000D01*
X79660000Y-119472968D01*
X79660000Y-120537032D01*
X79746397Y-120971378D01*
X79992434Y-121339598D01*
X80360654Y-121585635D01*
X80795000Y-121672032D01*
X81229346Y-121585635D01*
X81597566Y-121339598D01*
X81843603Y-120971378D01*
X81930000Y-120537032D01*
X81930000Y-120205132D01*
X82200000Y-120475132D01*
X82200000Y-120537032D01*
X82286397Y-120971378D01*
X82532434Y-121339598D01*
X82900654Y-121585635D01*
X83335000Y-121672032D01*
X83769346Y-121585635D01*
X84137566Y-121339598D01*
X84383603Y-120971378D01*
X84470000Y-120537032D01*
X84470000Y-119472968D01*
X84422665Y-119235000D01*
X84787335Y-119235000D01*
X84740000Y-119472968D01*
X84740000Y-120537032D01*
X84826397Y-120971378D01*
X85072434Y-121339598D01*
X85440654Y-121585635D01*
X85875000Y-121672032D01*
X86309346Y-121585635D01*
X86677566Y-121339598D01*
X86923603Y-120971378D01*
X87010000Y-120537032D01*
X87010000Y-120205132D01*
X87280000Y-120475132D01*
X87280000Y-120537032D01*
X87366397Y-120971378D01*
X87612434Y-121339598D01*
X87980654Y-121585635D01*
X88415000Y-121672032D01*
X88849346Y-121585635D01*
X88925000Y-121535085D01*
X88925000Y-121910000D01*
X88982852Y-122200839D01*
X89147599Y-122447401D01*
X90390198Y-123690000D01*
X80087463Y-123690000D01*
X80055327Y-123657808D01*
X79711799Y-123515162D01*
X79339833Y-123514838D01*
X78996057Y-123656883D01*
X78962882Y-123690000D01*
X73489802Y-123690000D01*
X72665000Y-122865198D01*
X72665000Y-121535085D01*
X72740654Y-121585635D01*
X73175000Y-121672032D01*
X73609346Y-121585635D01*
X73977566Y-121339598D01*
X74223603Y-120971378D01*
X74310000Y-120537032D01*
X74310000Y-119472968D01*
X74223603Y-119038622D01*
X73977566Y-118670402D01*
X73609346Y-118424365D01*
X73175000Y-118337968D01*
X72740654Y-118424365D01*
X72665000Y-118474915D01*
X72665000Y-112909802D01*
X74347401Y-111227401D01*
X74512148Y-110980839D01*
X74570000Y-110690000D01*
X74570000Y-109703690D01*
X82035000Y-109703690D01*
X82035000Y-110194250D01*
X82193750Y-110353000D01*
X82893000Y-110353000D01*
X82893000Y-109353750D01*
X82734250Y-109195000D01*
X82543691Y-109195000D01*
X82310302Y-109291673D01*
X82131673Y-109470301D01*
X82035000Y-109703690D01*
X74570000Y-109703690D01*
X74570000Y-107531762D01*
X74672189Y-107684698D01*
X75137736Y-107995767D01*
X75686887Y-108105000D01*
X75743113Y-108105000D01*
X76292264Y-107995767D01*
X76757811Y-107684698D01*
X77068880Y-107219151D01*
X77178113Y-106670000D01*
X77113688Y-106346114D01*
X77522401Y-105937401D01*
X77687148Y-105690840D01*
X77745000Y-105400000D01*
X77745000Y-95804802D01*
X79400000Y-97459802D01*
X79400000Y-100955000D01*
X79457852Y-101245839D01*
X79622599Y-101492401D01*
X81936312Y-103806114D01*
X81871887Y-104130000D01*
X81981120Y-104679151D01*
X82292189Y-105144698D01*
X82674275Y-105400000D01*
X82292189Y-105655302D01*
X81981120Y-106120849D01*
X81871887Y-106670000D01*
X81981120Y-107219151D01*
X82292189Y-107684698D01*
X82757736Y-107995767D01*
X83306887Y-108105000D01*
X83363113Y-108105000D01*
X83912264Y-107995767D01*
X84377811Y-107684698D01*
X84688880Y-107219151D01*
X84798113Y-106670000D01*
X84688880Y-106120849D01*
X84377811Y-105655302D01*
X83995725Y-105400000D01*
X84377811Y-105144698D01*
X84688880Y-104679151D01*
X84798113Y-104130000D01*
X84688880Y-103580849D01*
X84377811Y-103115302D01*
X83995725Y-102860000D01*
X84377811Y-102604698D01*
X84688880Y-102139151D01*
X84798113Y-101590000D01*
X84688880Y-101040849D01*
X84377811Y-100575302D01*
X83973297Y-100305014D01*
X84190134Y-100202389D01*
X84566041Y-99787423D01*
X84726904Y-99399039D01*
X84604915Y-99177000D01*
X83462000Y-99177000D01*
X83462000Y-99197000D01*
X83208000Y-99197000D01*
X83208000Y-99177000D01*
X82065085Y-99177000D01*
X81943096Y-99399039D01*
X82103959Y-99787423D01*
X82479866Y-100202389D01*
X82696703Y-100305014D01*
X82292189Y-100575302D01*
X82225264Y-100675462D01*
X81555000Y-100005198D01*
X81555000Y-98700961D01*
X81943096Y-98700961D01*
X82065085Y-98923000D01*
X83208000Y-98923000D01*
X83208000Y-97779371D01*
X83462000Y-97779371D01*
X83462000Y-98923000D01*
X84604915Y-98923000D01*
X84726904Y-98700961D01*
X84566041Y-98312577D01*
X84190134Y-97897611D01*
X83684041Y-97658086D01*
X83462000Y-97779371D01*
X83208000Y-97779371D01*
X82985959Y-97658086D01*
X82479866Y-97897611D01*
X82103959Y-98312577D01*
X81943096Y-98700961D01*
X81555000Y-98700961D01*
X81555000Y-96510000D01*
X81521669Y-96342434D01*
X81497148Y-96219160D01*
X81332401Y-95972599D01*
X77110000Y-91750198D01*
X77110000Y-89429204D01*
X77138398Y-89830435D01*
X77249468Y-90098582D01*
X77464619Y-90135776D01*
X78075395Y-89525000D01*
X77464619Y-88914224D01*
X77249468Y-88951418D01*
X77110000Y-89369417D01*
X77110000Y-88734619D01*
X77644224Y-88734619D01*
X78255000Y-89345395D01*
X78865776Y-88734619D01*
X78828582Y-88519468D01*
X78400120Y-88376509D01*
X77949565Y-88408398D01*
X77681418Y-88519468D01*
X77644224Y-88734619D01*
X77110000Y-88734619D01*
X77110000Y-86029802D01*
X77934802Y-85205000D01*
X80795000Y-85205000D01*
X81085839Y-85147148D01*
X81332401Y-84982401D01*
X82111362Y-84203440D01*
X82928600Y-84203440D01*
X82967254Y-84196167D01*
X81439210Y-85724210D01*
X81439210Y-85724210D01*
G37*
X81439210Y-85724210D02*
X81439208Y-85724213D01*
X80169210Y-86994210D01*
X79977367Y-87281325D01*
X79977367Y-87281326D01*
X79909999Y-87620000D01*
X79910000Y-87620005D01*
X79910000Y-88804186D01*
X79833033Y-88881019D01*
X79659818Y-89298168D01*
X79659503Y-89659737D01*
X79402740Y-89659513D01*
X79371602Y-89219565D01*
X79260532Y-88951418D01*
X79045381Y-88914224D01*
X78434605Y-89525000D01*
X78448748Y-89539143D01*
X78269143Y-89718748D01*
X78255000Y-89704605D01*
X77644224Y-90315381D01*
X77681418Y-90530532D01*
X78109880Y-90673491D01*
X78389743Y-90653683D01*
X78389424Y-91019850D01*
X78561911Y-91437301D01*
X78881019Y-91756967D01*
X79298168Y-91930182D01*
X79749850Y-91930576D01*
X80167301Y-91758089D01*
X80486967Y-91438981D01*
X80660182Y-91021832D01*
X80660497Y-90660263D01*
X81019850Y-90660576D01*
X81437301Y-90488089D01*
X81756967Y-90168981D01*
X81930182Y-89751832D01*
X81930576Y-89300150D01*
X81758089Y-88882699D01*
X81680000Y-88804473D01*
X81680000Y-87986580D01*
X82690787Y-86975792D01*
X82690790Y-86975790D01*
X84971579Y-84695000D01*
X85454069Y-84695000D01*
X85377488Y-85080000D01*
X85483828Y-85614609D01*
X85786660Y-86067828D01*
X86208959Y-86350000D01*
X85786660Y-86632172D01*
X85483828Y-87085391D01*
X85377488Y-87620000D01*
X85483828Y-88154609D01*
X85530153Y-88223939D01*
X85337599Y-88352599D01*
X85100320Y-88589878D01*
X85054833Y-88589838D01*
X84711057Y-88731883D01*
X84447808Y-88994673D01*
X84305162Y-89338201D01*
X84304838Y-89710167D01*
X84446883Y-90053943D01*
X84709673Y-90317192D01*
X85053201Y-90459838D01*
X85425167Y-90460162D01*
X85494889Y-90431353D01*
X85454230Y-90503070D01*
X85469190Y-90577277D01*
X85730820Y-91058026D01*
X86156509Y-91402059D01*
X86221893Y-91421358D01*
X85786660Y-91712172D01*
X85483828Y-92165391D01*
X85377488Y-92700000D01*
X85483828Y-93234609D01*
X85786660Y-93687828D01*
X86208959Y-93970000D01*
X85786660Y-94252172D01*
X85483828Y-94705391D01*
X85377488Y-95240000D01*
X85483828Y-95774609D01*
X85786660Y-96227828D01*
X86208959Y-96510000D01*
X85786660Y-96792172D01*
X85483828Y-97245391D01*
X85377488Y-97780000D01*
X85483828Y-98314609D01*
X85786660Y-98767828D01*
X86208959Y-99050000D01*
X85786660Y-99332172D01*
X85483828Y-99785391D01*
X85377488Y-100320000D01*
X85483828Y-100854609D01*
X85786660Y-101307828D01*
X86208959Y-101590000D01*
X85786660Y-101872172D01*
X85483828Y-102325391D01*
X85377488Y-102860000D01*
X85483828Y-103394609D01*
X85786660Y-103847828D01*
X86208959Y-104130000D01*
X85786660Y-104412172D01*
X85483828Y-104865391D01*
X85377488Y-105400000D01*
X85483828Y-105934609D01*
X85786660Y-106387828D01*
X86208959Y-106670000D01*
X85786660Y-106952172D01*
X85483828Y-107405391D01*
X85377488Y-107940000D01*
X85483828Y-108474609D01*
X85786660Y-108927828D01*
X86208312Y-109209567D01*
X85800633Y-109481970D01*
X85734090Y-109378559D01*
X85521890Y-109233569D01*
X85270000Y-109182560D01*
X84570000Y-109182560D01*
X84334683Y-109226838D01*
X84118559Y-109365910D01*
X83973569Y-109578110D01*
X83966809Y-109611490D01*
X83908327Y-109470301D01*
X83729698Y-109291673D01*
X83496309Y-109195000D01*
X83305750Y-109195000D01*
X83147000Y-109353750D01*
X83147000Y-110353000D01*
X83167000Y-110353000D01*
X83167000Y-110607000D01*
X83147000Y-110607000D01*
X83147000Y-110627000D01*
X82893000Y-110627000D01*
X82893000Y-110607000D01*
X82193750Y-110607000D01*
X82035000Y-110765750D01*
X82035000Y-111256310D01*
X82083335Y-111373000D01*
X78848132Y-111373000D01*
X78422566Y-110947434D01*
X78340878Y-110892852D01*
X78054346Y-110701397D01*
X77620000Y-110615000D01*
X75715000Y-110615000D01*
X75280654Y-110701397D01*
X74994122Y-110892852D01*
X74912434Y-110947434D01*
X73642434Y-112217434D01*
X73396397Y-112585654D01*
X73310000Y-113020000D01*
X73310000Y-116830000D01*
X73396397Y-117264346D01*
X73606994Y-117579526D01*
X73642434Y-117632566D01*
X74580000Y-118570132D01*
X74580000Y-120537032D01*
X74666397Y-120971378D01*
X74912434Y-121339598D01*
X75280654Y-121585635D01*
X75715000Y-121672032D01*
X76149346Y-121585635D01*
X76517566Y-121339598D01*
X76763603Y-120971378D01*
X76850000Y-120537032D01*
X76850000Y-119127000D01*
X77188817Y-119127000D01*
X77120000Y-119472968D01*
X77120000Y-120537032D01*
X77206397Y-120971378D01*
X77452434Y-121339598D01*
X77820654Y-121585635D01*
X78255000Y-121672032D01*
X78689346Y-121585635D01*
X79057566Y-121339598D01*
X79303603Y-120971378D01*
X79390000Y-120537032D01*
X79390000Y-119472968D01*
X79342665Y-119235000D01*
X79707335Y-119235000D01*
X79660000Y-119472968D01*
X79660000Y-120537032D01*
X79746397Y-120971378D01*
X79992434Y-121339598D01*
X80360654Y-121585635D01*
X80795000Y-121672032D01*
X81229346Y-121585635D01*
X81597566Y-121339598D01*
X81843603Y-120971378D01*
X81930000Y-120537032D01*
X81930000Y-120205132D01*
X82200000Y-120475132D01*
X82200000Y-120537032D01*
X82286397Y-120971378D01*
X82532434Y-121339598D01*
X82900654Y-121585635D01*
X83335000Y-121672032D01*
X83769346Y-121585635D01*
X84137566Y-121339598D01*
X84383603Y-120971378D01*
X84470000Y-120537032D01*
X84470000Y-119472968D01*
X84422665Y-119235000D01*
X84787335Y-119235000D01*
X84740000Y-119472968D01*
X84740000Y-120537032D01*
X84826397Y-120971378D01*
X85072434Y-121339598D01*
X85440654Y-121585635D01*
X85875000Y-121672032D01*
X86309346Y-121585635D01*
X86677566Y-121339598D01*
X86923603Y-120971378D01*
X87010000Y-120537032D01*
X87010000Y-120205132D01*
X87280000Y-120475132D01*
X87280000Y-120537032D01*
X87366397Y-120971378D01*
X87612434Y-121339598D01*
X87980654Y-121585635D01*
X88415000Y-121672032D01*
X88849346Y-121585635D01*
X88925000Y-121535085D01*
X88925000Y-121910000D01*
X88982852Y-122200839D01*
X89147599Y-122447401D01*
X90390198Y-123690000D01*
X80087463Y-123690000D01*
X80055327Y-123657808D01*
X79711799Y-123515162D01*
X79339833Y-123514838D01*
X78996057Y-123656883D01*
X78962882Y-123690000D01*
X73489802Y-123690000D01*
X72665000Y-122865198D01*
X72665000Y-121535085D01*
X72740654Y-121585635D01*
X73175000Y-121672032D01*
X73609346Y-121585635D01*
X73977566Y-121339598D01*
X74223603Y-120971378D01*
X74310000Y-120537032D01*
X74310000Y-119472968D01*
X74223603Y-119038622D01*
X73977566Y-118670402D01*
X73609346Y-118424365D01*
X73175000Y-118337968D01*
X72740654Y-118424365D01*
X72665000Y-118474915D01*
X72665000Y-112909802D01*
X74347401Y-111227401D01*
X74512148Y-110980839D01*
X74570000Y-110690000D01*
X74570000Y-109703690D01*
X82035000Y-109703690D01*
X82035000Y-110194250D01*
X82193750Y-110353000D01*
X82893000Y-110353000D01*
X82893000Y-109353750D01*
X82734250Y-109195000D01*
X82543691Y-109195000D01*
X82310302Y-109291673D01*
X82131673Y-109470301D01*
X82035000Y-109703690D01*
X74570000Y-109703690D01*
X74570000Y-107531762D01*
X74672189Y-107684698D01*
X75137736Y-107995767D01*
X75686887Y-108105000D01*
X75743113Y-108105000D01*
X76292264Y-107995767D01*
X76757811Y-107684698D01*
X77068880Y-107219151D01*
X77178113Y-106670000D01*
X77113688Y-106346114D01*
X77522401Y-105937401D01*
X77687148Y-105690840D01*
X77745000Y-105400000D01*
X77745000Y-95804802D01*
X79400000Y-97459802D01*
X79400000Y-100955000D01*
X79457852Y-101245839D01*
X79622599Y-101492401D01*
X81936312Y-103806114D01*
X81871887Y-104130000D01*
X81981120Y-104679151D01*
X82292189Y-105144698D01*
X82674275Y-105400000D01*
X82292189Y-105655302D01*
X81981120Y-106120849D01*
X81871887Y-106670000D01*
X81981120Y-107219151D01*
X82292189Y-107684698D01*
X82757736Y-107995767D01*
X83306887Y-108105000D01*
X83363113Y-108105000D01*
X83912264Y-107995767D01*
X84377811Y-107684698D01*
X84688880Y-107219151D01*
X84798113Y-106670000D01*
X84688880Y-106120849D01*
X84377811Y-105655302D01*
X83995725Y-105400000D01*
X84377811Y-105144698D01*
X84688880Y-104679151D01*
X84798113Y-104130000D01*
X84688880Y-103580849D01*
X84377811Y-103115302D01*
X83995725Y-102860000D01*
X84377811Y-102604698D01*
X84688880Y-102139151D01*
X84798113Y-101590000D01*
X84688880Y-101040849D01*
X84377811Y-100575302D01*
X83973297Y-100305014D01*
X84190134Y-100202389D01*
X84566041Y-99787423D01*
X84726904Y-99399039D01*
X84604915Y-99177000D01*
X83462000Y-99177000D01*
X83462000Y-99197000D01*
X83208000Y-99197000D01*
X83208000Y-99177000D01*
X82065085Y-99177000D01*
X81943096Y-99399039D01*
X82103959Y-99787423D01*
X82479866Y-100202389D01*
X82696703Y-100305014D01*
X82292189Y-100575302D01*
X82225264Y-100675462D01*
X81555000Y-100005198D01*
X81555000Y-98700961D01*
X81943096Y-98700961D01*
X82065085Y-98923000D01*
X83208000Y-98923000D01*
X83208000Y-97779371D01*
X83462000Y-97779371D01*
X83462000Y-98923000D01*
X84604915Y-98923000D01*
X84726904Y-98700961D01*
X84566041Y-98312577D01*
X84190134Y-97897611D01*
X83684041Y-97658086D01*
X83462000Y-97779371D01*
X83208000Y-97779371D01*
X82985959Y-97658086D01*
X82479866Y-97897611D01*
X82103959Y-98312577D01*
X81943096Y-98700961D01*
X81555000Y-98700961D01*
X81555000Y-96510000D01*
X81521669Y-96342434D01*
X81497148Y-96219160D01*
X81332401Y-95972599D01*
X77110000Y-91750198D01*
X77110000Y-89429204D01*
X77138398Y-89830435D01*
X77249468Y-90098582D01*
X77464619Y-90135776D01*
X78075395Y-89525000D01*
X77464619Y-88914224D01*
X77249468Y-88951418D01*
X77110000Y-89369417D01*
X77110000Y-88734619D01*
X77644224Y-88734619D01*
X78255000Y-89345395D01*
X78865776Y-88734619D01*
X78828582Y-88519468D01*
X78400120Y-88376509D01*
X77949565Y-88408398D01*
X77681418Y-88519468D01*
X77644224Y-88734619D01*
X77110000Y-88734619D01*
X77110000Y-86029802D01*
X77934802Y-85205000D01*
X80795000Y-85205000D01*
X81085839Y-85147148D01*
X81332401Y-84982401D01*
X82111362Y-84203440D01*
X82928600Y-84203440D01*
X82967254Y-84196167D01*
X81439210Y-85724210D01*
G36*
X111660000Y-103823178D02*
X111626871Y-103902961D01*
X111585635Y-103695654D01*
X111339598Y-103327434D01*
X110971378Y-103081397D01*
X110537032Y-102995000D01*
X109472968Y-102995000D01*
X109038622Y-103081397D01*
X108670402Y-103327434D01*
X108424365Y-103695654D01*
X108337968Y-104130000D01*
X108424365Y-104564346D01*
X108670402Y-104932566D01*
X109038622Y-105178603D01*
X109472968Y-105265000D01*
X110537032Y-105265000D01*
X110971378Y-105178603D01*
X111339598Y-104932566D01*
X111585635Y-104564346D01*
X111626958Y-104356601D01*
X111751883Y-104658943D01*
X112014673Y-104922192D01*
X112358201Y-105064838D01*
X112420000Y-105064892D01*
X112420000Y-119690198D01*
X109690198Y-122420000D01*
X97867463Y-122420000D01*
X97835327Y-122387808D01*
X97491799Y-122245162D01*
X97119833Y-122244838D01*
X96776057Y-122386883D01*
X96742882Y-122420000D01*
X93174802Y-122420000D01*
X92985000Y-122230198D01*
X92985000Y-121535085D01*
X93060654Y-121585635D01*
X93495000Y-121672032D01*
X93929346Y-121585635D01*
X94297566Y-121339598D01*
X94543603Y-120971378D01*
X94630000Y-120537032D01*
X94630000Y-119127000D01*
X94900000Y-119127000D01*
X94900000Y-120537032D01*
X94986397Y-120971378D01*
X95232434Y-121339598D01*
X95600654Y-121585635D01*
X96035000Y-121672032D01*
X96469346Y-121585635D01*
X96837566Y-121339598D01*
X97083603Y-120971378D01*
X97170000Y-120537032D01*
X97170000Y-119127000D01*
X97440000Y-119127000D01*
X97440000Y-120537032D01*
X97526397Y-120971378D01*
X97772434Y-121339598D01*
X98140654Y-121585635D01*
X98575000Y-121672032D01*
X99009346Y-121585635D01*
X99377566Y-121339598D01*
X99623603Y-120971378D01*
X99710000Y-120537032D01*
X99710000Y-119127000D01*
X100048817Y-119127000D01*
X99980000Y-119472968D01*
X99980000Y-120537032D01*
X100066397Y-120971378D01*
X100312434Y-121339598D01*
X100680654Y-121585635D01*
X101115000Y-121672032D01*
X101549346Y-121585635D01*
X101917566Y-121339598D01*
X102163603Y-120971378D01*
X102250000Y-120537032D01*
X102250000Y-119472968D01*
X102181183Y-119127000D01*
X102520000Y-119127000D01*
X102520000Y-120537032D01*
X102606397Y-120971378D01*
X102852434Y-121339598D01*
X103220654Y-121585635D01*
X103655000Y-121672032D01*
X104089346Y-121585635D01*
X104457566Y-121339598D01*
X104703603Y-120971378D01*
X104790000Y-120537032D01*
X104790000Y-119127000D01*
X105047560Y-119127000D01*
X105047560Y-121005000D01*
X105091838Y-121240317D01*
X105230910Y-121456441D01*
X105443110Y-121601431D01*
X105695000Y-121652440D01*
X106695000Y-121652440D01*
X106930317Y-121608162D01*
X107146441Y-121469090D01*
X107291431Y-121256890D01*
X107342440Y-121005000D01*
X107342440Y-119127000D01*
X107500000Y-119127000D01*
X107549410Y-119116994D01*
X107591035Y-119088553D01*
X107618315Y-119046159D01*
X107627000Y-119000000D01*
X107627000Y-116830000D01*
X108337968Y-116830000D01*
X108424365Y-117264346D01*
X108670402Y-117632566D01*
X109038622Y-117878603D01*
X109472968Y-117965000D01*
X110537032Y-117965000D01*
X110971378Y-117878603D01*
X111339598Y-117632566D01*
X111585635Y-117264346D01*
X111672032Y-116830000D01*
X111585635Y-116395654D01*
X111339598Y-116027434D01*
X110971378Y-115781397D01*
X110537032Y-115695000D01*
X109472968Y-115695000D01*
X109038622Y-115781397D01*
X108670402Y-116027434D01*
X108424365Y-116395654D01*
X108337968Y-116830000D01*
X107627000Y-116830000D01*
X107627000Y-113517132D01*
X108348238Y-114238370D01*
X108337968Y-114290000D01*
X108424365Y-114724346D01*
X108670402Y-115092566D01*
X109038622Y-115338603D01*
X109472968Y-115425000D01*
X110537032Y-115425000D01*
X110971378Y-115338603D01*
X111339598Y-115092566D01*
X111585635Y-114724346D01*
X111672032Y-114290000D01*
X111585635Y-113855654D01*
X111339598Y-113487434D01*
X110971378Y-113241397D01*
X110537032Y-113155000D01*
X110475132Y-113155000D01*
X110205132Y-112885000D01*
X110537032Y-112885000D01*
X110971378Y-112798603D01*
X111339598Y-112552566D01*
X111585635Y-112184346D01*
X111672032Y-111750000D01*
X111585635Y-111315654D01*
X111339598Y-110947434D01*
X110971378Y-110701397D01*
X110537032Y-110615000D01*
X109472968Y-110615000D01*
X109235000Y-110662335D01*
X109235000Y-110297665D01*
X109472968Y-110345000D01*
X110537032Y-110345000D01*
X110971378Y-110258603D01*
X111339598Y-110012566D01*
X111585635Y-109644346D01*
X111672032Y-109210000D01*
X111585635Y-108775654D01*
X111339598Y-108407434D01*
X110971378Y-108161397D01*
X110537032Y-108075000D01*
X109472968Y-108075000D01*
X109147935Y-108139653D01*
X108924327Y-107805000D01*
X110537032Y-107805000D01*
X110971378Y-107718603D01*
X111339598Y-107472566D01*
X111585635Y-107104346D01*
X111672032Y-106670000D01*
X111585635Y-106235654D01*
X111339598Y-105867434D01*
X110971378Y-105621397D01*
X110537032Y-105535000D01*
X108570132Y-105535000D01*
X107965000Y-104929868D01*
X107965000Y-102414326D01*
X108300655Y-102638604D01*
X108735000Y-102725000D01*
X110537032Y-102725000D01*
X110971378Y-102638603D01*
X111339598Y-102392566D01*
X111585635Y-102024346D01*
X111660000Y-101650489D01*
X111660000Y-103823178D01*
X111660000Y-103823178D01*
G37*
X111660000Y-103823178D02*
X111626871Y-103902961D01*
X111585635Y-103695654D01*
X111339598Y-103327434D01*
X110971378Y-103081397D01*
X110537032Y-102995000D01*
X109472968Y-102995000D01*
X109038622Y-103081397D01*
X108670402Y-103327434D01*
X108424365Y-103695654D01*
X108337968Y-104130000D01*
X108424365Y-104564346D01*
X108670402Y-104932566D01*
X109038622Y-105178603D01*
X109472968Y-105265000D01*
X110537032Y-105265000D01*
X110971378Y-105178603D01*
X111339598Y-104932566D01*
X111585635Y-104564346D01*
X111626958Y-104356601D01*
X111751883Y-104658943D01*
X112014673Y-104922192D01*
X112358201Y-105064838D01*
X112420000Y-105064892D01*
X112420000Y-119690198D01*
X109690198Y-122420000D01*
X97867463Y-122420000D01*
X97835327Y-122387808D01*
X97491799Y-122245162D01*
X97119833Y-122244838D01*
X96776057Y-122386883D01*
X96742882Y-122420000D01*
X93174802Y-122420000D01*
X92985000Y-122230198D01*
X92985000Y-121535085D01*
X93060654Y-121585635D01*
X93495000Y-121672032D01*
X93929346Y-121585635D01*
X94297566Y-121339598D01*
X94543603Y-120971378D01*
X94630000Y-120537032D01*
X94630000Y-119127000D01*
X94900000Y-119127000D01*
X94900000Y-120537032D01*
X94986397Y-120971378D01*
X95232434Y-121339598D01*
X95600654Y-121585635D01*
X96035000Y-121672032D01*
X96469346Y-121585635D01*
X96837566Y-121339598D01*
X97083603Y-120971378D01*
X97170000Y-120537032D01*
X97170000Y-119127000D01*
X97440000Y-119127000D01*
X97440000Y-120537032D01*
X97526397Y-120971378D01*
X97772434Y-121339598D01*
X98140654Y-121585635D01*
X98575000Y-121672032D01*
X99009346Y-121585635D01*
X99377566Y-121339598D01*
X99623603Y-120971378D01*
X99710000Y-120537032D01*
X99710000Y-119127000D01*
X100048817Y-119127000D01*
X99980000Y-119472968D01*
X99980000Y-120537032D01*
X100066397Y-120971378D01*
X100312434Y-121339598D01*
X100680654Y-121585635D01*
X101115000Y-121672032D01*
X101549346Y-121585635D01*
X101917566Y-121339598D01*
X102163603Y-120971378D01*
X102250000Y-120537032D01*
X102250000Y-119472968D01*
X102181183Y-119127000D01*
X102520000Y-119127000D01*
X102520000Y-120537032D01*
X102606397Y-120971378D01*
X102852434Y-121339598D01*
X103220654Y-121585635D01*
X103655000Y-121672032D01*
X104089346Y-121585635D01*
X104457566Y-121339598D01*
X104703603Y-120971378D01*
X104790000Y-120537032D01*
X104790000Y-119127000D01*
X105047560Y-119127000D01*
X105047560Y-121005000D01*
X105091838Y-121240317D01*
X105230910Y-121456441D01*
X105443110Y-121601431D01*
X105695000Y-121652440D01*
X106695000Y-121652440D01*
X106930317Y-121608162D01*
X107146441Y-121469090D01*
X107291431Y-121256890D01*
X107342440Y-121005000D01*
X107342440Y-119127000D01*
X107500000Y-119127000D01*
X107549410Y-119116994D01*
X107591035Y-119088553D01*
X107618315Y-119046159D01*
X107627000Y-119000000D01*
X107627000Y-116830000D01*
X108337968Y-116830000D01*
X108424365Y-117264346D01*
X108670402Y-117632566D01*
X109038622Y-117878603D01*
X109472968Y-117965000D01*
X110537032Y-117965000D01*
X110971378Y-117878603D01*
X111339598Y-117632566D01*
X111585635Y-117264346D01*
X111672032Y-116830000D01*
X111585635Y-116395654D01*
X111339598Y-116027434D01*
X110971378Y-115781397D01*
X110537032Y-115695000D01*
X109472968Y-115695000D01*
X109038622Y-115781397D01*
X108670402Y-116027434D01*
X108424365Y-116395654D01*
X108337968Y-116830000D01*
X107627000Y-116830000D01*
X107627000Y-113517132D01*
X108348238Y-114238370D01*
X108337968Y-114290000D01*
X108424365Y-114724346D01*
X108670402Y-115092566D01*
X109038622Y-115338603D01*
X109472968Y-115425000D01*
X110537032Y-115425000D01*
X110971378Y-115338603D01*
X111339598Y-115092566D01*
X111585635Y-114724346D01*
X111672032Y-114290000D01*
X111585635Y-113855654D01*
X111339598Y-113487434D01*
X110971378Y-113241397D01*
X110537032Y-113155000D01*
X110475132Y-113155000D01*
X110205132Y-112885000D01*
X110537032Y-112885000D01*
X110971378Y-112798603D01*
X111339598Y-112552566D01*
X111585635Y-112184346D01*
X111672032Y-111750000D01*
X111585635Y-111315654D01*
X111339598Y-110947434D01*
X110971378Y-110701397D01*
X110537032Y-110615000D01*
X109472968Y-110615000D01*
X109235000Y-110662335D01*
X109235000Y-110297665D01*
X109472968Y-110345000D01*
X110537032Y-110345000D01*
X110971378Y-110258603D01*
X111339598Y-110012566D01*
X111585635Y-109644346D01*
X111672032Y-109210000D01*
X111585635Y-108775654D01*
X111339598Y-108407434D01*
X110971378Y-108161397D01*
X110537032Y-108075000D01*
X109472968Y-108075000D01*
X109147935Y-108139653D01*
X108924327Y-107805000D01*
X110537032Y-107805000D01*
X110971378Y-107718603D01*
X111339598Y-107472566D01*
X111585635Y-107104346D01*
X111672032Y-106670000D01*
X111585635Y-106235654D01*
X111339598Y-105867434D01*
X110971378Y-105621397D01*
X110537032Y-105535000D01*
X108570132Y-105535000D01*
X107965000Y-104929868D01*
X107965000Y-102414326D01*
X108300655Y-102638604D01*
X108735000Y-102725000D01*
X110537032Y-102725000D01*
X110971378Y-102638603D01*
X111339598Y-102392566D01*
X111585635Y-102024346D01*
X111660000Y-101650489D01*
X111660000Y-103823178D01*
G36*
X119290000Y-99039784D02*
X119205635Y-98615654D01*
X118959598Y-98247434D01*
X118591378Y-98001397D01*
X118157032Y-97915000D01*
X117092968Y-97915000D01*
X116658622Y-98001397D01*
X116290402Y-98247434D01*
X116044365Y-98615654D01*
X115957968Y-99050000D01*
X116044365Y-99484346D01*
X116290402Y-99852566D01*
X116658622Y-100098603D01*
X117092968Y-100185000D01*
X118157032Y-100185000D01*
X118591378Y-100098603D01*
X118959598Y-99852566D01*
X119205635Y-99484346D01*
X119290000Y-99060216D01*
X119290000Y-104119784D01*
X119205635Y-103695654D01*
X118959598Y-103327434D01*
X118591378Y-103081397D01*
X118157032Y-102995000D01*
X117092968Y-102995000D01*
X116658622Y-103081397D01*
X116290402Y-103327434D01*
X116044365Y-103695654D01*
X115957968Y-104130000D01*
X116044365Y-104564346D01*
X116290402Y-104932566D01*
X116658622Y-105178603D01*
X117092968Y-105265000D01*
X118157032Y-105265000D01*
X118591378Y-105178603D01*
X118959598Y-104932566D01*
X119205635Y-104564346D01*
X119290000Y-104140216D01*
X119290000Y-109199784D01*
X119205635Y-108775654D01*
X118959598Y-108407434D01*
X118591378Y-108161397D01*
X118157032Y-108075000D01*
X117092968Y-108075000D01*
X116658622Y-108161397D01*
X116290402Y-108407434D01*
X116044365Y-108775654D01*
X115957968Y-109210000D01*
X116044365Y-109644346D01*
X116290402Y-110012566D01*
X116658622Y-110258603D01*
X117092968Y-110345000D01*
X118157032Y-110345000D01*
X118591378Y-110258603D01*
X118959598Y-110012566D01*
X119205635Y-109644346D01*
X119290000Y-109220216D01*
X119290000Y-111739784D01*
X119205635Y-111315654D01*
X118959598Y-110947434D01*
X118591378Y-110701397D01*
X118157032Y-110615000D01*
X117092968Y-110615000D01*
X116658622Y-110701397D01*
X116290402Y-110947434D01*
X116044365Y-111315654D01*
X115957968Y-111750000D01*
X116044365Y-112184346D01*
X116072999Y-112227199D01*
X115845000Y-112455198D01*
X115845000Y-106971874D01*
X116030881Y-106971874D01*
X116232632Y-107382763D01*
X116573322Y-107670002D01*
X116998000Y-107805000D01*
X117498000Y-107805000D01*
X117498000Y-106797000D01*
X117752000Y-106797000D01*
X117752000Y-107805000D01*
X118252000Y-107805000D01*
X118676678Y-107670002D01*
X119017368Y-107382763D01*
X119219119Y-106971874D01*
X119092954Y-106797000D01*
X117752000Y-106797000D01*
X117498000Y-106797000D01*
X116157046Y-106797000D01*
X116030881Y-106971874D01*
X115845000Y-106971874D01*
X115845000Y-106368126D01*
X116030881Y-106368126D01*
X116157046Y-106543000D01*
X117498000Y-106543000D01*
X117498000Y-105535000D01*
X117752000Y-105535000D01*
X117752000Y-106543000D01*
X119092954Y-106543000D01*
X119219119Y-106368126D01*
X119017368Y-105957237D01*
X118676678Y-105669998D01*
X118252000Y-105535000D01*
X117752000Y-105535000D01*
X117498000Y-105535000D01*
X116998000Y-105535000D01*
X116573322Y-105669998D01*
X116232632Y-105957237D01*
X116030881Y-106368126D01*
X115845000Y-106368126D01*
X115845000Y-101891874D01*
X116030881Y-101891874D01*
X116232632Y-102302763D01*
X116573322Y-102590002D01*
X116998000Y-102725000D01*
X117498000Y-102725000D01*
X117498000Y-101717000D01*
X117752000Y-101717000D01*
X117752000Y-102725000D01*
X118252000Y-102725000D01*
X118676678Y-102590002D01*
X119017368Y-102302763D01*
X119219119Y-101891874D01*
X119092954Y-101717000D01*
X117752000Y-101717000D01*
X117498000Y-101717000D01*
X116157046Y-101717000D01*
X116030881Y-101891874D01*
X115845000Y-101891874D01*
X115845000Y-101288126D01*
X116030881Y-101288126D01*
X116157046Y-101463000D01*
X117498000Y-101463000D01*
X117498000Y-100455000D01*
X117752000Y-100455000D01*
X117752000Y-101463000D01*
X119092954Y-101463000D01*
X119219119Y-101288126D01*
X119017368Y-100877237D01*
X118676678Y-100589998D01*
X118252000Y-100455000D01*
X117752000Y-100455000D01*
X117498000Y-100455000D01*
X116998000Y-100455000D01*
X116573322Y-100589998D01*
X116232632Y-100877237D01*
X116030881Y-101288126D01*
X115845000Y-101288126D01*
X115845000Y-96824802D01*
X115991454Y-96678348D01*
X116044365Y-96944346D01*
X116290402Y-97312566D01*
X116658622Y-97558603D01*
X117092968Y-97645000D01*
X118157032Y-97645000D01*
X118591378Y-97558603D01*
X118959598Y-97312566D01*
X119205635Y-96944346D01*
X119290000Y-96520216D01*
X119290000Y-99039784D01*
X119290000Y-99039784D01*
G37*
X119290000Y-99039784D02*
X119205635Y-98615654D01*
X118959598Y-98247434D01*
X118591378Y-98001397D01*
X118157032Y-97915000D01*
X117092968Y-97915000D01*
X116658622Y-98001397D01*
X116290402Y-98247434D01*
X116044365Y-98615654D01*
X115957968Y-99050000D01*
X116044365Y-99484346D01*
X116290402Y-99852566D01*
X116658622Y-100098603D01*
X117092968Y-100185000D01*
X118157032Y-100185000D01*
X118591378Y-100098603D01*
X118959598Y-99852566D01*
X119205635Y-99484346D01*
X119290000Y-99060216D01*
X119290000Y-104119784D01*
X119205635Y-103695654D01*
X118959598Y-103327434D01*
X118591378Y-103081397D01*
X118157032Y-102995000D01*
X117092968Y-102995000D01*
X116658622Y-103081397D01*
X116290402Y-103327434D01*
X116044365Y-103695654D01*
X115957968Y-104130000D01*
X116044365Y-104564346D01*
X116290402Y-104932566D01*
X116658622Y-105178603D01*
X117092968Y-105265000D01*
X118157032Y-105265000D01*
X118591378Y-105178603D01*
X118959598Y-104932566D01*
X119205635Y-104564346D01*
X119290000Y-104140216D01*
X119290000Y-109199784D01*
X119205635Y-108775654D01*
X118959598Y-108407434D01*
X118591378Y-108161397D01*
X118157032Y-108075000D01*
X117092968Y-108075000D01*
X116658622Y-108161397D01*
X116290402Y-108407434D01*
X116044365Y-108775654D01*
X115957968Y-109210000D01*
X116044365Y-109644346D01*
X116290402Y-110012566D01*
X116658622Y-110258603D01*
X117092968Y-110345000D01*
X118157032Y-110345000D01*
X118591378Y-110258603D01*
X118959598Y-110012566D01*
X119205635Y-109644346D01*
X119290000Y-109220216D01*
X119290000Y-111739784D01*
X119205635Y-111315654D01*
X118959598Y-110947434D01*
X118591378Y-110701397D01*
X118157032Y-110615000D01*
X117092968Y-110615000D01*
X116658622Y-110701397D01*
X116290402Y-110947434D01*
X116044365Y-111315654D01*
X115957968Y-111750000D01*
X116044365Y-112184346D01*
X116072999Y-112227199D01*
X115845000Y-112455198D01*
X115845000Y-106971874D01*
X116030881Y-106971874D01*
X116232632Y-107382763D01*
X116573322Y-107670002D01*
X116998000Y-107805000D01*
X117498000Y-107805000D01*
X117498000Y-106797000D01*
X117752000Y-106797000D01*
X117752000Y-107805000D01*
X118252000Y-107805000D01*
X118676678Y-107670002D01*
X119017368Y-107382763D01*
X119219119Y-106971874D01*
X119092954Y-106797000D01*
X117752000Y-106797000D01*
X117498000Y-106797000D01*
X116157046Y-106797000D01*
X116030881Y-106971874D01*
X115845000Y-106971874D01*
X115845000Y-106368126D01*
X116030881Y-106368126D01*
X116157046Y-106543000D01*
X117498000Y-106543000D01*
X117498000Y-105535000D01*
X117752000Y-105535000D01*
X117752000Y-106543000D01*
X119092954Y-106543000D01*
X119219119Y-106368126D01*
X119017368Y-105957237D01*
X118676678Y-105669998D01*
X118252000Y-105535000D01*
X117752000Y-105535000D01*
X117498000Y-105535000D01*
X116998000Y-105535000D01*
X116573322Y-105669998D01*
X116232632Y-105957237D01*
X116030881Y-106368126D01*
X115845000Y-106368126D01*
X115845000Y-101891874D01*
X116030881Y-101891874D01*
X116232632Y-102302763D01*
X116573322Y-102590002D01*
X116998000Y-102725000D01*
X117498000Y-102725000D01*
X117498000Y-101717000D01*
X117752000Y-101717000D01*
X117752000Y-102725000D01*
X118252000Y-102725000D01*
X118676678Y-102590002D01*
X119017368Y-102302763D01*
X119219119Y-101891874D01*
X119092954Y-101717000D01*
X117752000Y-101717000D01*
X117498000Y-101717000D01*
X116157046Y-101717000D01*
X116030881Y-101891874D01*
X115845000Y-101891874D01*
X115845000Y-101288126D01*
X116030881Y-101288126D01*
X116157046Y-101463000D01*
X117498000Y-101463000D01*
X117498000Y-100455000D01*
X117752000Y-100455000D01*
X117752000Y-101463000D01*
X119092954Y-101463000D01*
X119219119Y-101288126D01*
X119017368Y-100877237D01*
X118676678Y-100589998D01*
X118252000Y-100455000D01*
X117752000Y-100455000D01*
X117498000Y-100455000D01*
X116998000Y-100455000D01*
X116573322Y-100589998D01*
X116232632Y-100877237D01*
X116030881Y-101288126D01*
X115845000Y-101288126D01*
X115845000Y-96824802D01*
X115991454Y-96678348D01*
X116044365Y-96944346D01*
X116290402Y-97312566D01*
X116658622Y-97558603D01*
X117092968Y-97645000D01*
X118157032Y-97645000D01*
X118591378Y-97558603D01*
X118959598Y-97312566D01*
X119205635Y-96944346D01*
X119290000Y-96520216D01*
X119290000Y-99039784D01*
G36*
X91373000Y-89560581D02*
X91251724Y-89510223D01*
X90740519Y-89509777D01*
X90268057Y-89704995D01*
X89906265Y-90066155D01*
X89710223Y-90538276D01*
X89709777Y-91049481D01*
X89904995Y-91521943D01*
X90266155Y-91883735D01*
X90738276Y-92079777D01*
X91249481Y-92080223D01*
X91373000Y-92029186D01*
X91373000Y-102260581D01*
X91251724Y-102210223D01*
X90740519Y-102209777D01*
X90268057Y-102404995D01*
X89906265Y-102766155D01*
X89710223Y-103238276D01*
X89709777Y-103749481D01*
X89904995Y-104221943D01*
X90266155Y-104583735D01*
X90738276Y-104779777D01*
X91249481Y-104780223D01*
X91373000Y-104729186D01*
X91373000Y-110947394D01*
X90947394Y-111373000D01*
X88567997Y-111373000D01*
X88807467Y-111014609D01*
X88913807Y-110480000D01*
X88807467Y-109945391D01*
X88504635Y-109492172D01*
X88081688Y-109209567D01*
X88503340Y-108927828D01*
X88806172Y-108474609D01*
X88912512Y-107940000D01*
X88806172Y-107405391D01*
X88503340Y-106952172D01*
X88081041Y-106670000D01*
X88503340Y-106387828D01*
X88806172Y-105934609D01*
X88912512Y-105400000D01*
X88806172Y-104865391D01*
X88503340Y-104412172D01*
X88081041Y-104130000D01*
X88503340Y-103847828D01*
X88806172Y-103394609D01*
X88912512Y-102860000D01*
X88806172Y-102325391D01*
X88503340Y-101872172D01*
X88081041Y-101590000D01*
X88503340Y-101307828D01*
X88806172Y-100854609D01*
X88912512Y-100320000D01*
X88806172Y-99785391D01*
X88503340Y-99332172D01*
X88081041Y-99050000D01*
X88503340Y-98767828D01*
X88806172Y-98314609D01*
X88912512Y-97780000D01*
X88806172Y-97245391D01*
X88503340Y-96792172D01*
X88081041Y-96510000D01*
X88503340Y-96227828D01*
X88806172Y-95774609D01*
X88912512Y-95240000D01*
X88806172Y-94705391D01*
X88503340Y-94252172D01*
X88081041Y-93970000D01*
X88503340Y-93687828D01*
X88806172Y-93234609D01*
X88912512Y-92700000D01*
X88806172Y-92165391D01*
X88503340Y-91712172D01*
X88068107Y-91421358D01*
X88133491Y-91402059D01*
X88559180Y-91058026D01*
X88820810Y-90577277D01*
X88835770Y-90503070D01*
X88713270Y-90287000D01*
X87272000Y-90287000D01*
X87272000Y-90307000D01*
X87018000Y-90307000D01*
X87018000Y-90287000D01*
X86998000Y-90287000D01*
X86998000Y-90033000D01*
X87018000Y-90033000D01*
X87018000Y-90013000D01*
X87272000Y-90013000D01*
X87272000Y-90033000D01*
X88713270Y-90033000D01*
X88835770Y-89816930D01*
X88820810Y-89742723D01*
X88770349Y-89650000D01*
X89050000Y-89650000D01*
X89340839Y-89592148D01*
X89587401Y-89427401D01*
X91373000Y-87641802D01*
X91373000Y-89560581D01*
X91373000Y-89560581D01*
G37*
X91373000Y-89560581D02*
X91251724Y-89510223D01*
X90740519Y-89509777D01*
X90268057Y-89704995D01*
X89906265Y-90066155D01*
X89710223Y-90538276D01*
X89709777Y-91049481D01*
X89904995Y-91521943D01*
X90266155Y-91883735D01*
X90738276Y-92079777D01*
X91249481Y-92080223D01*
X91373000Y-92029186D01*
X91373000Y-102260581D01*
X91251724Y-102210223D01*
X90740519Y-102209777D01*
X90268057Y-102404995D01*
X89906265Y-102766155D01*
X89710223Y-103238276D01*
X89709777Y-103749481D01*
X89904995Y-104221943D01*
X90266155Y-104583735D01*
X90738276Y-104779777D01*
X91249481Y-104780223D01*
X91373000Y-104729186D01*
X91373000Y-110947394D01*
X90947394Y-111373000D01*
X88567997Y-111373000D01*
X88807467Y-111014609D01*
X88913807Y-110480000D01*
X88807467Y-109945391D01*
X88504635Y-109492172D01*
X88081688Y-109209567D01*
X88503340Y-108927828D01*
X88806172Y-108474609D01*
X88912512Y-107940000D01*
X88806172Y-107405391D01*
X88503340Y-106952172D01*
X88081041Y-106670000D01*
X88503340Y-106387828D01*
X88806172Y-105934609D01*
X88912512Y-105400000D01*
X88806172Y-104865391D01*
X88503340Y-104412172D01*
X88081041Y-104130000D01*
X88503340Y-103847828D01*
X88806172Y-103394609D01*
X88912512Y-102860000D01*
X88806172Y-102325391D01*
X88503340Y-101872172D01*
X88081041Y-101590000D01*
X88503340Y-101307828D01*
X88806172Y-100854609D01*
X88912512Y-100320000D01*
X88806172Y-99785391D01*
X88503340Y-99332172D01*
X88081041Y-99050000D01*
X88503340Y-98767828D01*
X88806172Y-98314609D01*
X88912512Y-97780000D01*
X88806172Y-97245391D01*
X88503340Y-96792172D01*
X88081041Y-96510000D01*
X88503340Y-96227828D01*
X88806172Y-95774609D01*
X88912512Y-95240000D01*
X88806172Y-94705391D01*
X88503340Y-94252172D01*
X88081041Y-93970000D01*
X88503340Y-93687828D01*
X88806172Y-93234609D01*
X88912512Y-92700000D01*
X88806172Y-92165391D01*
X88503340Y-91712172D01*
X88068107Y-91421358D01*
X88133491Y-91402059D01*
X88559180Y-91058026D01*
X88820810Y-90577277D01*
X88835770Y-90503070D01*
X88713270Y-90287000D01*
X87272000Y-90287000D01*
X87272000Y-90307000D01*
X87018000Y-90307000D01*
X87018000Y-90287000D01*
X86998000Y-90287000D01*
X86998000Y-90033000D01*
X87018000Y-90033000D01*
X87018000Y-90013000D01*
X87272000Y-90013000D01*
X87272000Y-90033000D01*
X88713270Y-90033000D01*
X88835770Y-89816930D01*
X88820810Y-89742723D01*
X88770349Y-89650000D01*
X89050000Y-89650000D01*
X89340839Y-89592148D01*
X89587401Y-89427401D01*
X91373000Y-87641802D01*
X91373000Y-89560581D01*
G36*
X112244838Y-86535167D02*
X112386883Y-86878943D01*
X112649673Y-87142192D01*
X112993201Y-87284838D01*
X113365167Y-87285162D01*
X113708943Y-87143117D01*
X113742118Y-87110000D01*
X116261960Y-87110000D01*
X116290402Y-87152566D01*
X116658622Y-87398603D01*
X117092968Y-87485000D01*
X118157032Y-87485000D01*
X118591378Y-87398603D01*
X118959598Y-87152566D01*
X119205635Y-86784346D01*
X119290000Y-86360216D01*
X119290000Y-88879784D01*
X119205635Y-88455654D01*
X118959598Y-88087434D01*
X118591378Y-87841397D01*
X118157032Y-87755000D01*
X117092968Y-87755000D01*
X116658622Y-87841397D01*
X116290402Y-88087434D01*
X116044365Y-88455654D01*
X115957968Y-88890000D01*
X116044365Y-89324346D01*
X116290402Y-89692566D01*
X116658622Y-89938603D01*
X117092968Y-90025000D01*
X118157032Y-90025000D01*
X118591378Y-89938603D01*
X118959598Y-89692566D01*
X119205635Y-89324346D01*
X119290000Y-88900216D01*
X119290000Y-91419784D01*
X119205635Y-90995654D01*
X118959598Y-90627434D01*
X118591378Y-90381397D01*
X118157032Y-90295000D01*
X117092968Y-90295000D01*
X116658622Y-90381397D01*
X116290402Y-90627434D01*
X116247699Y-90691344D01*
X116064161Y-90727852D01*
X115817599Y-90892599D01*
X112642599Y-94067599D01*
X112477852Y-94314161D01*
X112420000Y-94605000D01*
X112420000Y-96844890D01*
X112359833Y-96844838D01*
X112016057Y-96986883D01*
X111752808Y-97249673D01*
X111610162Y-97593201D01*
X111609838Y-97965167D01*
X111660000Y-98086569D01*
X111660000Y-98989511D01*
X111585635Y-98615654D01*
X111339598Y-98247434D01*
X110971378Y-98001397D01*
X110537032Y-97915000D01*
X109472968Y-97915000D01*
X109038622Y-98001397D01*
X108809574Y-98154442D01*
X107627000Y-96971868D01*
X107627000Y-96248000D01*
X108232910Y-96248000D01*
X108361867Y-96389853D01*
X108337968Y-96510000D01*
X108424365Y-96944346D01*
X108670402Y-97312566D01*
X109038622Y-97558603D01*
X109472968Y-97645000D01*
X110537032Y-97645000D01*
X110971378Y-97558603D01*
X111339598Y-97312566D01*
X111585635Y-96944346D01*
X111672032Y-96510000D01*
X111585635Y-96075654D01*
X111339598Y-95707434D01*
X110971378Y-95461397D01*
X110537032Y-95375000D01*
X110507090Y-95375000D01*
X110261635Y-95105000D01*
X110537032Y-95105000D01*
X110971378Y-95018603D01*
X111339598Y-94772566D01*
X111585635Y-94404346D01*
X111672032Y-93970000D01*
X111585635Y-93535654D01*
X111339598Y-93167434D01*
X110971378Y-92921397D01*
X110537032Y-92835000D01*
X110205132Y-92835000D01*
X110475132Y-92565000D01*
X110537032Y-92565000D01*
X110971378Y-92478603D01*
X111339598Y-92232566D01*
X111585635Y-91864346D01*
X111672032Y-91430000D01*
X111585635Y-90995654D01*
X111339598Y-90627434D01*
X110971378Y-90381397D01*
X110537032Y-90295000D01*
X109472968Y-90295000D01*
X109038622Y-90381397D01*
X108670402Y-90627434D01*
X108424365Y-90995654D01*
X108337968Y-91430000D01*
X108348238Y-91481630D01*
X107629868Y-92200000D01*
X107627000Y-92200000D01*
X107627000Y-91601285D01*
X107632566Y-91597566D01*
X108902566Y-90327566D01*
X109008529Y-90168981D01*
X109147934Y-89960347D01*
X109472968Y-90025000D01*
X110537032Y-90025000D01*
X110971378Y-89938603D01*
X111339598Y-89692566D01*
X111585635Y-89324346D01*
X111672032Y-88890000D01*
X111585635Y-88455654D01*
X111339598Y-88087434D01*
X110971378Y-87841397D01*
X110537032Y-87755000D01*
X109472968Y-87755000D01*
X109235000Y-87802335D01*
X109235000Y-87485000D01*
X110537032Y-87485000D01*
X110971378Y-87398603D01*
X111339598Y-87152566D01*
X111585635Y-86784346D01*
X111672032Y-86350000D01*
X111645179Y-86215000D01*
X112245117Y-86215000D01*
X112244838Y-86535167D01*
X112244838Y-86535167D01*
G37*
X112244838Y-86535167D02*
X112386883Y-86878943D01*
X112649673Y-87142192D01*
X112993201Y-87284838D01*
X113365167Y-87285162D01*
X113708943Y-87143117D01*
X113742118Y-87110000D01*
X116261960Y-87110000D01*
X116290402Y-87152566D01*
X116658622Y-87398603D01*
X117092968Y-87485000D01*
X118157032Y-87485000D01*
X118591378Y-87398603D01*
X118959598Y-87152566D01*
X119205635Y-86784346D01*
X119290000Y-86360216D01*
X119290000Y-88879784D01*
X119205635Y-88455654D01*
X118959598Y-88087434D01*
X118591378Y-87841397D01*
X118157032Y-87755000D01*
X117092968Y-87755000D01*
X116658622Y-87841397D01*
X116290402Y-88087434D01*
X116044365Y-88455654D01*
X115957968Y-88890000D01*
X116044365Y-89324346D01*
X116290402Y-89692566D01*
X116658622Y-89938603D01*
X117092968Y-90025000D01*
X118157032Y-90025000D01*
X118591378Y-89938603D01*
X118959598Y-89692566D01*
X119205635Y-89324346D01*
X119290000Y-88900216D01*
X119290000Y-91419784D01*
X119205635Y-90995654D01*
X118959598Y-90627434D01*
X118591378Y-90381397D01*
X118157032Y-90295000D01*
X117092968Y-90295000D01*
X116658622Y-90381397D01*
X116290402Y-90627434D01*
X116247699Y-90691344D01*
X116064161Y-90727852D01*
X115817599Y-90892599D01*
X112642599Y-94067599D01*
X112477852Y-94314161D01*
X112420000Y-94605000D01*
X112420000Y-96844890D01*
X112359833Y-96844838D01*
X112016057Y-96986883D01*
X111752808Y-97249673D01*
X111610162Y-97593201D01*
X111609838Y-97965167D01*
X111660000Y-98086569D01*
X111660000Y-98989511D01*
X111585635Y-98615654D01*
X111339598Y-98247434D01*
X110971378Y-98001397D01*
X110537032Y-97915000D01*
X109472968Y-97915000D01*
X109038622Y-98001397D01*
X108809574Y-98154442D01*
X107627000Y-96971868D01*
X107627000Y-96248000D01*
X108232910Y-96248000D01*
X108361867Y-96389853D01*
X108337968Y-96510000D01*
X108424365Y-96944346D01*
X108670402Y-97312566D01*
X109038622Y-97558603D01*
X109472968Y-97645000D01*
X110537032Y-97645000D01*
X110971378Y-97558603D01*
X111339598Y-97312566D01*
X111585635Y-96944346D01*
X111672032Y-96510000D01*
X111585635Y-96075654D01*
X111339598Y-95707434D01*
X110971378Y-95461397D01*
X110537032Y-95375000D01*
X110507090Y-95375000D01*
X110261635Y-95105000D01*
X110537032Y-95105000D01*
X110971378Y-95018603D01*
X111339598Y-94772566D01*
X111585635Y-94404346D01*
X111672032Y-93970000D01*
X111585635Y-93535654D01*
X111339598Y-93167434D01*
X110971378Y-92921397D01*
X110537032Y-92835000D01*
X110205132Y-92835000D01*
X110475132Y-92565000D01*
X110537032Y-92565000D01*
X110971378Y-92478603D01*
X111339598Y-92232566D01*
X111585635Y-91864346D01*
X111672032Y-91430000D01*
X111585635Y-90995654D01*
X111339598Y-90627434D01*
X110971378Y-90381397D01*
X110537032Y-90295000D01*
X109472968Y-90295000D01*
X109038622Y-90381397D01*
X108670402Y-90627434D01*
X108424365Y-90995654D01*
X108337968Y-91430000D01*
X108348238Y-91481630D01*
X107629868Y-92200000D01*
X107627000Y-92200000D01*
X107627000Y-91601285D01*
X107632566Y-91597566D01*
X108902566Y-90327566D01*
X109008529Y-90168981D01*
X109147934Y-89960347D01*
X109472968Y-90025000D01*
X110537032Y-90025000D01*
X110971378Y-89938603D01*
X111339598Y-89692566D01*
X111585635Y-89324346D01*
X111672032Y-88890000D01*
X111585635Y-88455654D01*
X111339598Y-88087434D01*
X110971378Y-87841397D01*
X110537032Y-87755000D01*
X109472968Y-87755000D01*
X109235000Y-87802335D01*
X109235000Y-87485000D01*
X110537032Y-87485000D01*
X110971378Y-87398603D01*
X111339598Y-87152566D01*
X111585635Y-86784346D01*
X111672032Y-86350000D01*
X111645179Y-86215000D01*
X112245117Y-86215000D01*
X112244838Y-86535167D01*
M02*
